<svg xmlns="http://www.w3.org/2000/svg" xmlns:xlink="http://www.w3.org/1999/xlink" width="688.58pt" height="93.49pt" viewBox="0 0 688.58 93.49"><defs><clipPath id="clip1"><path d="M 0 0 L 688.578125 0 L 688.578125 93.488281 L 0 93.488281 Z M 0 0 "></path></clipPath></defs><g id="surface1"><g clip-path="url(#clip1)" clip-rule="nonzero"><path style=" stroke:none;fill-rule:evenodd;fill:rgb(0%,55.699158%,79.998779%);fill-opacity:1;" d="M 680.699219 26.410156 C 676.640625 26.410156 673.351563 23.121094 673.351563 19.0625 C 673.351563 15 676.640625 11.710938 680.699219 11.710938 C 684.761719 11.710938 688.050781 15 688.050781 19.0625 C 688.050781 23.121094 684.761719 26.410156 680.699219 26.410156 M 680.699219 11.1875 C 676.351563 11.1875 672.824219 14.710938 672.824219 19.0625 C 672.824219 23.410156 676.351563 26.9375 680.699219 26.9375 C 685.050781 26.9375 688.574219 23.410156 688.574219 19.0625 C 688.574219 14.710938 685.050781 11.1875 680.699219 11.1875 M 679.769531 21.9375 L 680.988281 15.703125 L 683.035156 20.738281 L 685.089844 15.703125 L 686.335938 21.9375 L 685.789063 21.9375 L 684.910156 17.488281 L 683.035156 22.070313 L 681.15625 17.488281 L 680.285156 21.9375 Z M 677.054688 21.933594 L 677.054688 16.421875 L 675.371094 16.421875 L 675.378906 15.902344 L 679.136719 15.902344 L 679.136719 16.421875 L 677.589844 16.421875 L 677.589844 21.9375 Z M 19.871094 90.863281 L 0 90.863281 L 11.855469 11.835938 L 33.078125 11.835938 L 47.390625 62.429688 L 61.726563 11.835938 L 83.03125 11.835938 L 94.972656 90.863281 L 75.042969 90.863281 L 68.605469 39.492188 L 54.597656 90.863281 L 40.246094 90.863281 L 25.910156 39.574219 Z M 152.355469 38.171875 C 152.355469 38.171875 146.320313 29.902344 126.570313 30.617188 C 126.570313 30.617188 108.082031 31.378906 102.132813 46.953125 C 102.132813 46.953125 97.28125 55.605469 100.359375 71.132813 C 100.359375 71.132813 104.285156 94.980469 133.363281 93.414063 C 133.363281 93.414063 153.828125 94.214844 160.582031 73.539063 L 142.773438 73.539063 C 142.773438 73.539063 140.242188 80.964844 129.816406 79.996094 C 129.816406 79.996094 117.535156 79.699219 117.621094 66.25 L 161.132813 66.25 C 161.132813 66.25 163.324219 47.160156 152.355469 38.171875 M 143.070313 55.941406 L 117.367188 55.941406 C 118.464844 42.984375 130.324219 43.703125 130.324219 43.703125 C 143.996094 43.871094 143.070313 55.941406 143.070313 55.941406 M 392.117188 38.171875 C 392.117188 38.171875 386.082031 29.902344 366.332031 30.617188 C 366.332031 30.617188 347.847656 31.378906 341.894531 46.953125 C 341.894531 46.953125 337.042969 55.605469 340.121094 71.132813 C 340.121094 71.132813 344.046875 94.980469 373.125 93.414063 C 373.125 93.414063 393.59375 94.214844 400.347656 73.539063 L 382.539063 73.539063 C 382.539063 73.539063 380.003906 80.964844 369.582031 79.996094 C 369.582031 79.996094 357.300781 79.699219 357.386719 66.25 L 400.898438 66.25 C 400.898438 66.25 403.089844 47.160156 392.117188 38.171875 M 382.835938 55.941406 L 357.132813 55.941406 C 358.226563 42.984375 370.089844 43.703125 370.089844 43.703125 C 383.761719 43.871094 382.835938 55.941406 382.835938 55.941406 M 173.886719 20.109375 L 194.566406 20.109375 L 194.566406 36.328125 L 203.585938 36.328125 L 203.585938 49.996094 L 194.609375 49.996094 L 194.609375 90.785156 L 173.886719 90.785156 L 173.886719 49.984375 L 165.128906 49.984375 L 165.128906 36.265625 L 173.898438 36.265625 Z M 211.902344 11.835938 L 233.398438 11.835938 L 233.398438 72.359375 L 258.019531 72.359375 L 258.019531 90.863281 L 212.011719 90.863281 Z M 295.476563 36.328125 L 303.476563 36.328125 L 303.476563 22.058594 C 304.988281 8.988281 315.335938 7.199219 315.335938 7.199219 C 322.957031 4.683594 331.726563 7.070313 331.726563 7.070313 L 331.8125 22.144531 C 330.109375 20.355469 327.128906 20.652344 327.128906 20.652344 C 322.574219 21.039063 322.359375 25.722656 322.359375 25.722656 L 322.359375 36.328125 L 331.804688 36.328125 L 331.804688 49.984375 L 322.265625 49.984375 L 322.265625 90.789063 L 303.539063 90.789063 L 303.539063 49.984375 L 295.488281 49.984375 Z M 276.761719 0.00390625 C 283.605469 0.00390625 289.152344 5.550781 289.152344 12.390625 C 289.152344 19.230469 283.605469 24.777344 276.761719 24.777344 C 269.925781 24.777344 264.375 19.230469 264.375 12.390625 C 264.375 5.550781 269.925781 0.00390625 276.761719 0.00390625 M 266.503906 90.898438 L 287.023438 90.898438 L 287.023438 31.5 L 266.503906 31.5 Z M 545.585938 0.00390625 C 552.425781 0.00390625 557.972656 5.550781 557.972656 12.390625 C 557.972656 19.230469 552.425781 24.777344 545.585938 24.777344 C 538.742188 24.777344 533.195313 19.230469 533.195313 12.390625 C 533.195313 5.550781 538.742188 0.00390625 545.585938 0.00390625 M 535.324219 90.898438 L 555.84375 90.898438 L 555.84375 31.5 L 535.324219 31.5 Z M 504.722656 90.898438 L 525.242188 90.898438 L 525.242188 12.058594 L 504.722656 12.058594 Z M 609.125 34.875 L 609.125 52.605469 C 604.722656 50.167969 599.867188 48.074219 593.640625 48.074219 C 585.128906 48.074219 578.90625 53.101563 578.792969 61.914063 C 578.667969 71.984375 585.699219 75.757813 594.511719 75.757813 C 602.257813 75.757813 605.285156 73.167969 609.125 71.222656 L 609.125 89.226563 C 604.042969 91.996094 598.304688 93.492188 591.976563 93.492188 C 573.132813 93.492188 557.847656 79.402344 557.847656 62.035156 C 557.847656 44.664063 573.132813 30.578125 591.976563 30.578125 C 598.304688 30.578125 604.042969 32.105469 609.125 34.875 M 648.539063 75.035156 C 645.429688 75.035156 642.371094 74.082031 640.125 72.367188 C 634.683594 68.207031 634.144531 58.992188 638.605469 53.925781 C 640.96875 51.242188 644.59375 49.65625 648.539063 49.65625 C 652.484375 49.65625 656.109375 51.242188 658.472656 53.925781 C 662.933594 58.992188 662.394531 68.207031 656.953125 72.367188 C 654.707031 74.082031 651.648438 75.035156 648.539063 75.035156 M 648.539063 93.492188 C 639.207031 93.492188 630.457031 90.515625 624.234375 85.230469 C 617.4375 79.453125 614.09375 71.046875 614.09375 62.625 C 614.09375 53.664063 617.878906 44.6875 625.316406 38.859375 C 631.644531 33.902344 639.988281 31.226563 648.539063 31.226563 C 657.089844 31.226563 665.429688 33.902344 671.761719 38.859375 C 679.199219 44.6875 682.984375 53.664063 682.984375 62.625 C 682.984375 71.046875 679.640625 79.453125 672.84375 85.230469 C 666.617188 90.515625 657.871094 93.492188 648.539063 93.492188 M 419.007813 90.882813 L 440.882813 90.851563 L 446.042969 77.578125 L 473.722656 77.578125 L 478.445313 90.898438 L 500.335938 90.925781 L 471.242188 13.570313 L 448.746094 13.570313 Z M 459.761719 37.992188 L 467.800781 61.6875 L 451.835938 61.75 "></path></g></g></svg>