<svg xmlns="http://www.w3.org/2000/svg" width="125" height="235" viewBox="0 0 125 235"><path fill="#005aa9" d="M67.1 153.7h-2c0-1.4-1.2-2.6-2.6-2.6s-2.6 1.2-2.6 2.6h-2c0-2.5 2.1-4.6 4.6-4.6 2.5 0 4.6 2.1 4.6 4.6z"></path><path fill="#005aa9" d="M74.4 153.7h-2c0-5.4-4.4-9.9-9.9-9.9-5.4 0-9.9 4.4-9.9 9.9h-2c0-6.5 5.3-11.9 11.9-11.9 6.5 0 11.9 5.4 11.9 11.9z"></path><path fill="#005aa9" d="M81.6 153.7h-2c0-9.4-7.7-17.1-17.1-17.1-9.4 0-17.1 7.7-17.1 17.1h-2c0-10.5 8.6-19.1 19.1-19.1s19.1 8.6 19.1 19.1z"></path><path fill="#005aa9" d="M88.8 153.7h-2c0-13.4-10.9-24.3-24.3-24.3s-24.3 10.9-24.3 24.3h-2c0-14.5 11.8-26.3 26.3-26.3s26.3 11.8 26.3 26.3zM62.5 114c-10.5 0-19.1-8.6-19.1-19.1S52 75.8 62.5 75.8s19.1 8.6 19.1 19.1S73 114 62.5 114zm0-36.2c-9.4 0-17.1 7.7-17.1 17.1S53.1 112 62.5 112c9.4 0 17.1-7.7 17.1-17.1s-7.7-17.1-17.1-17.1z"></path><path fill="#005aa9" d="M96.1 153.7h-2c0-17.4-14.2-31.6-31.6-31.6s-31.6 14.2-31.6 31.6h-2c0-18.5 15.1-33.6 33.6-33.6s33.6 15.1 33.6 33.6z"></path><path fill="#005aa9" d="M103.3 153.7h-2c0-21.4-17.4-38.8-38.8-38.8s-38.8 17.4-38.8 38.8h-2c0-22.5 18.3-40.8 40.8-40.8s40.8 18.3 40.8 40.8z"></path><path fill="#005aa9" d="M115 234.3H10c-5.5 0-10-4.5-10-10V10.8C0 5.3 4.5.8 10 .8h105c5.5 0 10 4.5 10 10v213.5c0 5.5-4.5 10-10 10zM10 2.8c-4.4 0-8 3.6-8 8v213.5c0 4.4 3.6 8 8 8h105c4.4 0 8-3.6 8-8V10.8c0-4.4-3.6-8-8-8H10z"></path><path fill="#005aa9" d="M1 15.2h123v2H1zm0 188.1h123v2H1zm61.5 23.8c-4.5 0-8.2-3.7-8.2-8.2s3.7-8.2 8.2-8.2 8.2 3.7 8.2 8.2-3.7 8.2-8.2 8.2zm0-14.5c-3.4 0-6.2 2.8-6.2 6.2s2.8 6.2 6.2 6.2 6.2-2.8 6.2-6.2-2.8-6.2-6.2-6.2z"></path></svg>