<svg xmlns="http://www.w3.org/2000/svg" xmlns:xlink="http://www.w3.org/1999/xlink" width="877.429" height="554.453" viewBox="0 0 877.429 554.453"><defs><clipPath id="clip-path"><path id="Path_6303" data-name="Path 6303" d="M721.752,460.375,295.509,461.9a11.6,11.6,0,0,1-9.358-18.523l33.371-44.938a15.83,15.83,0,0,1,12.709-6.393H688.789a15.828,15.828,0,0,1,13.089,6.927l29.429,43.267A11.605,11.605,0,0,1,721.752,460.375Z" transform="translate(-283.842 -392.05)" fill="none"/></clipPath></defs><g id="Group_5725" data-name="Group 5725" transform="translate(-103.935 -99.527)"><g id="Group_5462" data-name="Group 5462" transform="translate(103.936 483.609)"><g id="Group_5454" data-name="Group 5454" transform="translate(169.153 3.213)"><ellipse id="Ellipse_148" data-name="Ellipse 148" cx="294.991" cy="45.297" rx="294.991" ry="45.297" fill="#e2d1b3"/></g><g id="Group_5455" data-name="Group 5455" transform="translate(0 69.001)"><ellipse id="Ellipse_149" data-name="Ellipse 149" cx="75.878" cy="9.662" rx="75.878" ry="9.662" fill="#e2d1b3"/></g><g id="Group_5456" data-name="Group 5456" transform="translate(222.318 151.048)"><ellipse id="Ellipse_150" data-name="Ellipse 150" cx="75.878" cy="9.661" rx="75.878" ry="9.661" fill="#e2d1b3"/></g><g id="Group_5457" data-name="Group 5457" transform="translate(456.077 122.083)"><ellipse id="Ellipse_151" data-name="Ellipse 151" cx="75.878" cy="9.661" rx="75.878" ry="9.661" fill="#e2d1b3"/></g><g id="Group_5458" data-name="Group 5458" transform="translate(480.818 108.392)"><ellipse id="Ellipse_152" data-name="Ellipse 152" cx="75.878" cy="9.661" rx="75.878" ry="9.661" fill="#e2d1b3"/></g><g id="Group_5459" data-name="Group 5459" transform="translate(725.674 78.996)"><ellipse id="Ellipse_153" data-name="Ellipse 153" cx="75.878" cy="9.662" rx="75.878" ry="9.662" fill="#e2d1b3"/></g><g id="Group_5460" data-name="Group 5460" transform="translate(620.334)"><ellipse id="Ellipse_154" data-name="Ellipse 154" cx="75.878" cy="9.661" rx="75.878" ry="9.661" fill="#e2d1b3"/></g><g id="Group_5461" data-name="Group 5461" transform="translate(121.406 29.835)"><ellipse id="Ellipse_155" data-name="Ellipse 155" cx="73.714" cy="9.706" rx="73.714" ry="9.706" fill="#e2d1b3"/></g></g><g id="Group_5473" data-name="Group 5473" transform="translate(341.168 243.224)"><g id="Group_5463" data-name="Group 5463" transform="translate(30.787)"><rect id="Rectangle_666" data-name="Rectangle 666" width="387.919" height="236.845" rx="10.514" fill="#30193b"/></g><g id="Group_5464" data-name="Group 5464" transform="translate(0 242.036)"><path id="Path_6299" data-name="Path 6299" d="M721.752,460.375,295.509,461.9a11.6,11.6,0,0,1-9.358-18.523l33.371-44.938a15.83,15.83,0,0,1,12.709-6.393H688.789a15.828,15.828,0,0,1,13.089,6.927l29.429,43.267A11.605,11.605,0,0,1,721.752,460.375Z" transform="translate(-283.842 -392.05)" fill="#30193b"/></g><g id="Group_5465" data-name="Group 5465" transform="translate(28.513 251.189)"><path id="Path_6300" data-name="Path 6300" d="M697.932,433.094l-392.467.836,24.528-34.939H674.47Z" transform="translate(-305.465 -398.991)" fill="#7f65c1"/></g><g id="Group_5466" data-name="Group 5466" transform="translate(64.836 236.845)"><rect id="Rectangle_667" data-name="Rectangle 667" width="75.374" height="5.191" fill="#3b2b5b"/></g><g id="Group_5467" data-name="Group 5467" transform="translate(306.843 236.845)"><rect id="Rectangle_668" data-name="Rectangle 668" width="75.374" height="5.191" fill="#3b2b5b"/></g><g id="Group_5468" data-name="Group 5468" transform="translate(49.942 18.552)"><rect id="Rectangle_669" data-name="Rectangle 669" width="349.61" height="199.74" rx="4.117" fill="#fafeff"/></g><g id="Group_5469" data-name="Group 5469" transform="translate(220.227 5.032)"><path id="Path_6301" data-name="Path 6301" d="M459.891,216.835a4.519,4.519,0,1,1-4.519-4.519A4.518,4.518,0,0,1,459.891,216.835Z" transform="translate(-450.853 -212.316)" fill="#7f65c1"/></g><g id="Group_5472" data-name="Group 5472" transform="translate(0 242.036)"><g id="Group_5471" data-name="Group 5471" clip-path="url(#clip-path)"><g id="Group_5470" data-name="Group 5470" transform="translate(-0.631 54.067)"><path id="Path_6302" data-name="Path 6302" d="M734.119,433.052l-450.755,1.256v35.27H734.119Z" transform="translate(-283.364 -433.052)" fill="#3b2b5b"/></g></g></g></g><g id="Group_5506" data-name="Group 5506" transform="translate(653.36 376.452)"><g id="Group_5477" data-name="Group 5477" transform="translate(0 38.388)"><g id="Group_5474" data-name="Group 5474" transform="translate(0.413 0.255)"><rect id="Rectangle_670" data-name="Rectangle 670" width="7.539" height="18.373" fill="#ffcb48"/></g><g id="Group_5476" data-name="Group 5476"><g id="Group_5475" data-name="Group 5475"><path id="Path_6304" data-name="Path 6304" d="M528.7,357.02c-2,0-4.949.587-6.842,0-.926-.286-.212.518-.438-.659a16.032,16.032,0,0,1,0-2.857v-13c0-.276.145-1.9-.24-1.472-.349.384.4.071.852.132a14.79,14.79,0,0,0,1.888,0c1.03,0,3.075-.426,3.963,0,.559.268.1-.455.251.659a24.114,24.114,0,0,1,0,3.162v14.34c0,.373.825.214.825-.09V338.858c0-.141-.124-.211-.258-.211h-7.539c-.146,0-.567.075-.567.3V357.32c0,.141.125.211.26.211h7.539C528.731,357.531,529.255,357.02,528.7,357.02Z" transform="translate(-520.595 -338.647)" fill="#ffcb48"/></g></g></g><g id="Group_5481" data-name="Group 5481" transform="translate(10.684 34.753)"><g id="Group_5478" data-name="Group 5478" transform="translate(0.412 0.208)"><rect id="Rectangle_671" data-name="Rectangle 671" width="7.539" height="22.056" fill="#ffcb48"/></g><g id="Group_5480" data-name="Group 5480"><g id="Group_5479" data-name="Group 5479"><path id="Path_6305" data-name="Path 6305" d="M536.813,357.946c-1.16,0-6.831.645-7.353.026s.059-4.95.059-5.906v-10.1c0-.848-.232-5.789-.225-5.8-.16.16,6.773-.138,6.941.083.688.9,0,4.833,0,5.934v16.077c0,.21.823.07.823-.22V335.988c0-.091-.194-.1-.245-.1h-7.539c-.174,0-.578.087-.578.318v22.056c0,.092.194.1.245.1h7.539C536.758,358.362,537.363,357.946,536.813,357.946Z" transform="translate(-528.697 -335.89)" fill="#ffcb48"/></g></g></g><g id="Group_5485" data-name="Group 5485" transform="translate(22.074 29.493)"><g id="Group_5482" data-name="Group 5482" transform="translate(0.411 0.173)"><rect id="Rectangle_672" data-name="Rectangle 672" width="7.539" height="27.351" fill="#ffcb48"/></g><g id="Group_5484" data-name="Group 5484"><g id="Group_5483" data-name="Group 5483"><path id="Path_6306" data-name="Path 6306" d="M545.55,359.252c-1.363,0-6.655.711-7.394-.157-.883-1.04,0-6.825,0-8.182V338.9c0-.968-.369-6.626-.249-6.767-.149.175,6.455-.332,6.966.27.91,1.068,0,6.8,0,8.182v18.949c0,.141.821.022.821-.22V331.963c0-.049-.124-.062-.145-.062h-7.539c-.153,0-.676.058-.676.282v27.351c0,.05.125.062.146.062h7.539C545.2,359.6,545.951,359.252,545.55,359.252Z" transform="translate(-537.335 -331.901)" fill="#ffcb48"/></g></g></g><g id="Group_5489" data-name="Group 5489" transform="translate(32.756 24.193)"><g id="Group_5486" data-name="Group 5486" transform="translate(0.411 0.177)"><rect id="Rectangle_673" data-name="Rectangle 673" width="7.539" height="32.647" fill="#ffcb48"/></g><g id="Group_5488" data-name="Group 5488"><g id="Group_5487" data-name="Group 5487"><path id="Path_6307" data-name="Path 6307" d="M553.65,360.529c-2.123,0-6.628.872-7.392-.694-1.064-2.178,0-7.715,0-10.094v-13.98c0-1.085-.477-7.344-.232-7.644-.134.165,4.661-.1,5.467.119,1.948.521.81-.5,1.482.9,1.084,2.26,0,7.983,0,10.423v21.259c0,.152.821.03.821-.22V327.949c0-.051-.124-.067-.146-.067h-7.539c-.158,0-.675.055-.675.288v32.646c0,.051.124.067.146.067h7.539C553.307,360.882,554.055,360.529,553.65,360.529Z" transform="translate(-545.436 -327.882)" fill="#ffcb48"/></g></g></g><g id="Group_5493" data-name="Group 5493" transform="translate(44.122 17.004)"><g id="Group_5490" data-name="Group 5490" transform="translate(0.417 0.306)"><rect id="Rectangle_674" data-name="Rectangle 674" width="7.539" height="39.707" fill="#ffcb48"/></g><g id="Group_5492" data-name="Group 5492"><g id="Group_5491" data-name="Group 5491"><path id="Path_6308" data-name="Path 6308" d="M562.046,362.137c-1.6,0-5.433.762-6.755,0-.616-.356-.253.149-.4-1.619-.359-4.251,0-8.687,0-12.95v-16.19c0-1.284-.582-8.025-.12-8.483-.03.03,5.826-.2,6.423.148.616.355.253-.149.4,1.619.359,4.251,0,8.687,0,12.949v24.863c0,.434.833.316.833-.061V322.706c0-.214-.2-.276-.381-.276h-7.539c-.163,0-.452.141-.452.336v39.707c0,.214.2.276.382.276h7.539C562.448,362.749,562.6,362.137,562.046,362.137Z" transform="translate(-554.055 -322.43)" fill="#ffcb48"/></g></g></g><g id="Group_5497" data-name="Group 5497" transform="translate(54.805 8.058)"><g id="Group_5494" data-name="Group 5494" transform="translate(0.415 0.279)"><rect id="Rectangle_675" data-name="Rectangle 675" width="7.539" height="48.68" fill="#ffcb48"/></g><g id="Group_5496" data-name="Group 5496"><g id="Group_5495" data-name="Group 5495"><path id="Path_6309" data-name="Path 6309" d="M570.259,364.325a35.667,35.667,0,0,1-5.91,0c-1.949-.348-.831.655-1.362-.752-.909-2.409,0-6.977,0-9.525V324.135c0-1.842-.886-6.372,0-8.029.2-.377-.792.529.223.1.873-.369,2.562,0,3.543,0,1.5,0,2.6-.322,2.943.289.952,1.705,0,6.689,0,8.6v39.547c0,.4.829.265.829-.074v-48.68a.25.25,0,0,0-.266-.241H562.72c-.165,0-.563.073-.563.316v48.679a.252.252,0,0,0,.268.243h7.539C570.333,364.884,570.811,364.325,570.259,364.325Z" transform="translate(-562.157 -315.646)" fill="#ffcb48"/></g></g></g><g id="Group_5501" data-name="Group 5501" transform="translate(66.047)"><g id="Group_5498" data-name="Group 5498" transform="translate(0.412 0.247)"><rect id="Rectangle_676" data-name="Rectangle 676" width="7.539" height="56.77" fill="#ffcb48"/></g><g id="Group_5500" data-name="Group 5500"><g id="Group_5499" data-name="Group 5499"><path id="Path_6310" data-name="Path 6310" d="M578.789,366.3c-1.673,0-5.331.742-6.755,0-.878-.459-.235.262-.527-1.354-.669-3.682,0-8.122,0-11.853V318.6c0-1.747-.977-7.159,0-8.683.2-.318-.731.632.215.108.831-.46,3.16,0,4.1,0,2.415,0,1.808-.533,2.4.806,1.068,2.426,0,7.9,0,10.511V366.6c0,.361.824.2.824-.095V309.735c0-.141-.125-.2-.256-.2H571.25c-.14,0-.568.076-.568.294V366.6c0,.14.125.2.256.2h7.539C578.8,366.8,579.342,366.3,578.789,366.3Z" transform="translate(-570.682 -309.535)" fill="#ffcb48"/></g></g></g><g id="Group_5505" data-name="Group 5505" transform="translate(0.003 58.577)"><g id="Group_5502" data-name="Group 5502" transform="translate(0.411 0.219)"><rect id="Rectangle_677" data-name="Rectangle 677" width="73.584" height="1.774" fill="#ffcb48"/></g><g id="Group_5504" data-name="Group 5504"><g id="Group_5503" data-name="Group 5503"><path id="Path_6311" data-name="Path 6311" d="M594.755,355.732H529.114c-1.584,0-6.529.9-7.92,0-2.5-1.614,5.015-1.337,5.855-1.337h59.435c1.927,0,4.295-.363,6.2,0s1.5-.715,1.5,1.665c0,.228.821.082.821-.22v-1.774c0-.095-.191-.109-.248-.109H521.172c-.186,0-.575.088-.575.33v1.774c0,.095.191.108.246.108h73.584C594.718,356.168,595.307,355.732,594.755,355.732Z" transform="translate(-520.597 -353.957)" fill="#ffcb48"/></g></g></g></g><g id="Group_5507" data-name="Group 5507" transform="translate(570.433 272.368)"><rect id="Rectangle_678" data-name="Rectangle 678" width="160.113" height="85.162" fill="#3b2b5b"/></g><g id="Group_5513" data-name="Group 5513" transform="translate(575.084 200.998)"><g id="Group_5508" data-name="Group 5508"><path id="Path_6312" data-name="Path 6312" d="M461.234,176.478H589.317v56.041l-16.11-22.244H461.234Z" transform="translate(-461.234 -176.478)" fill="#e8f4f9"/></g><g id="Group_5509" data-name="Group 5509" transform="translate(4.933 10.547)"><rect id="Rectangle_679" data-name="Rectangle 679" width="116.182" height="5.973" fill="#d5eaf5"/></g><g id="Group_5510" data-name="Group 5510" transform="translate(4.933 21.666)"><rect id="Rectangle_680" data-name="Rectangle 680" width="22.103" height="5.973" fill="#d5eaf5"/></g><g id="Group_5511" data-name="Group 5511" transform="translate(35.614 21.666)"><rect id="Rectangle_681" data-name="Rectangle 681" width="22.103" height="5.973" fill="#d5eaf5"/></g><g id="Group_5512" data-name="Group 5512" transform="translate(66.919 21.666)"><rect id="Rectangle_682" data-name="Rectangle 682" width="43.611" height="5.973" fill="#d5eaf5"/></g></g><g id="Group_5519" data-name="Group 5519" transform="translate(617.278 291.69)"><g id="Group_5514" data-name="Group 5514" opacity="0.77"><path id="Path_6313" data-name="Path 6313" d="M662.012,245.255H493.232V320.1l21.229-27.125H662.012Z" transform="translate(-493.232 -245.255)" fill="#fff"/></g><g id="Group_5518" data-name="Group 5518" transform="translate(7.714 7.959)"><g id="Group_5515" data-name="Group 5515"><rect id="Rectangle_683" data-name="Rectangle 683" width="151.949" height="5.973" fill="#d5eaf5"/></g><g id="Group_5516" data-name="Group 5516" transform="translate(0 11.786)"><rect id="Rectangle_684" data-name="Rectangle 684" width="125.313" height="5.973" fill="#d5eaf5"/></g><g id="Group_5517" data-name="Group 5517" transform="translate(0 23.41)"><rect id="Rectangle_685" data-name="Rectangle 685" width="89.252" height="5.973" fill="#d5eaf5"/></g></g></g><g id="Group_5543" data-name="Group 5543" transform="translate(720.855 198.144)"><g id="Group_5522" data-name="Group 5522" transform="translate(46.067 284.366)"><g id="Group_5520" data-name="Group 5520" transform="translate(0 3.179)"><path id="Path_6314" data-name="Path 6314" d="M606.765,398.108c.721-1.829,5.133-3.835,8.656-5.24-1.023.771-2.01,1.833-.272,2.176,2.542.5,7.925-.74,9.389-2.669a11.5,11.5,0,0,1,1.113,4.41C625.768,398.432,605.6,401.071,606.765,398.108Z" transform="translate(-606.716 -392.375)" fill="#3b2b5b"/></g><g id="Group_5521" data-name="Group 5521" transform="translate(7.483)"><path id="Path_6315" data-name="Path 6315" d="M613.341,395.812c-1.738-.343-.752-1.4.272-2.176,2.184-.87,4.025-1.511,4.427-1.731a2.646,2.646,0,0,0,1.274-1.609l1.114-.332s-.6,1.626,1.571,2.223c.365.1.523.583.732.956C621.266,395.072,615.883,396.312,613.341,395.812Z" transform="translate(-612.391 -389.964)" fill="#ff97a6"/></g></g><g id="Group_5525" data-name="Group 5525" transform="translate(79.292 283.242)"><g id="Group_5523" data-name="Group 5523" transform="translate(0 3.38)"><path id="Path_6316" data-name="Path 6316" d="M646.674,400.718c.713-1.807-5.843-7.863-8.379-9.043.748.723,1.8,2.189.583,2.693-1.784.734-5.218-.67-6.312-2.57a17.587,17.587,0,0,0-.654,4.715C631.88,398.248,645,404.952,646.674,400.718Z" transform="translate(-631.912 -391.675)" fill="#3b2b5b"/></g><g id="Group_5524" data-name="Group 5524" transform="translate(0.654)"><path id="Path_6317" data-name="Path 6317" d="M640.675,396.847c1.22-.5-1.418-3.353-2.165-4.077a17.715,17.715,0,0,0-2.818-1.843,2.691,2.691,0,0,1-.952-1.581l-1.321-.233a3.126,3.126,0,0,1-.522,2.439,4.491,4.491,0,0,0-.488,1.063C633.5,394.514,638.889,397.583,640.675,396.847Z" transform="translate(-632.408 -389.112)" fill="#ff97a6"/></g></g><g id="Group_5526" data-name="Group 5526" transform="translate(37.567 79.79)"><path id="Path_6318" data-name="Path 6318" d="M648.815,234.823c.145.53,11.485,4.768,18.119,18.241,12.145,24.663,11.592,55.347,9.713,79.184-2.072,26.286-21.371,84.335-26.656,105.772-.766,3.1-7.652,5.718-8.511,1.865-2.763-12.4,6.129-103.085,6.129-103.085l-8.016-58.751L628.207,440.668s-7.2,3.56-7.453-.465c-1.7-26.944-20.75-141.645-20.481-155.068.691-34.515,5.64-36.534,8.579-43.709C613.881,242.822,640.414,240.487,648.815,234.823Z" transform="translate(-600.27 -234.823)" fill="#7f65c1"/></g><g id="Group_5527" data-name="Group 5527" transform="translate(77.917 79.79)"><path id="Path_6319" data-name="Path 6319" d="M639.064,234.823c.145.53,11.485,4.768,18.12,18.241,12.145,24.663,11.592,55.347,9.713,79.184-2.072,26.286-21.371,84.335-26.656,105.772a5.424,5.424,0,0,1-3.063,3.1c-1.315.625,16.035-56.59,19.1-106.136,2.6-41.929-34.484-95.836-23.3-98.657C637.065,235.294,636.815,236.339,639.064,234.823Z" transform="translate(-630.869 -234.823)" fill="#6e57b2"/></g><g id="Group_5528" data-name="Group 5528" transform="translate(45.5 0.484)"><path id="Path_6320" data-name="Path 6320" d="M619.186,181.368s2.256-9.838,13.491-5.649c6.361,2.371,6.819,10.384,6.771,13.254a19.5,19.5,0,0,0,.12,2.732c.331,2.623,4.694,4.864,6.453,4.921,6.471.207,14.853,1,20.068,8.087,8.41,11.433-1.345,24.967-15.414,32.05-5.649,2.843-30.032,4.2-34.228-1.834s-1.585,2.285-8.346-18.64c-.709-2.2-2.855-20.464-1.212-27.938C608.065,183.011,614.557,177.292,619.186,181.368Z" transform="translate(-606.286 -174.68)" fill="#3b2b5b"/></g><g id="Group_5529" data-name="Group 5529" transform="translate(1.017 38.807)"><path id="Path_6321" data-name="Path 6321" d="M620.388,206.721s-4.5-2.751-20.456-2.972c-22.388-.311-27.38,12.014-27.38,12.014l8.834,4.657s26.91-8.77,32.85-6.751S620.388,206.721,620.388,206.721Z" transform="translate(-572.552 -203.743)" fill="#aacbe8"/></g><g id="Group_5530" data-name="Group 5530" transform="translate(0 46.79)"><path id="Path_6322" data-name="Path 6322" d="M607.889,240.275a2.338,2.338,0,0,0-.407-2.691c-5.074-5.135-25.624-25.828-28.961-27.509-3.812-1.92-10.514,6.3-4.032,19.851C580.809,243.136,598.205,259.588,607.889,240.275Z" transform="translate(-571.781 -209.797)" fill="#aacbe8"/></g><g id="Group_5531" data-name="Group 5531" transform="translate(33.103 76.082)"><path id="Path_6323" data-name="Path 6323" d="M600.544,233.129s2.863,3.762,2.859,6.577c0,2.876-1.477,6.958-1.871,7.036-1.134.223-.008-2.487-.008-2.487s-.683,3.7-1.713,3.119c-.477-.27-.389-2.025-.389-2.025s-.142.781-.935.219-1.1-4.68-.753-5.83-1.3-4.733-.727-7.077C597.22,231.795,598.978,231.648,600.544,233.129Z" transform="translate(-596.885 -232.011)" fill="#ff97a6"/></g><g id="Group_5532" data-name="Group 5532" transform="translate(38.144 38.24)"><path id="Path_6324" data-name="Path 6324" d="M656.678,250.229c-.9,2.78-6.589,5.661-13.719,6.159-16.119,1.126-27.99-2.966-34.246-4.923,2.586-8.538,2.385-16.5.889-24.479-1.456-7.763-8.894-22.562-8.894-22.562a143.3,143.3,0,0,0,17.1-.545c30.773-2.831,37.312,5.86,37.312,5.86s1.075,8.707,1.879,18.58A136.309,136.309,0,0,1,656.678,250.229Z" transform="translate(-600.707 -203.313)" fill="#aacbe8"/></g><g id="Group_5533" data-name="Group 5533" transform="translate(78.255 39.01)"><path id="Path_6325" data-name="Path 6325" d="M631.126,203.9s14.641-.777,21.97,14.667a276.173,276.173,0,0,1,13.678,36.505l-15.035-9.154S641.7,217.01,636.4,213.648,631.126,203.9,631.126,203.9Z" transform="translate(-631.126 -203.897)" fill="#99b4dd"/></g><g id="Group_5534" data-name="Group 5534" transform="translate(91.707 77.097)"><path id="Path_6326" data-name="Path 6326" d="M642.569,275.852a2.335,2.335,0,0,1-1.209-2.44c1.213-7.115,6.19-35.851,7.959-39.143,2.023-3.758,12.229-.861,14.684,13.954C666.4,262.672,661.573,286.126,642.569,275.852Z" transform="translate(-641.327 -232.78)" fill="#99b4dd"/></g><g id="Group_5535" data-name="Group 5535" transform="translate(94.128 119.418)"><path id="Path_6327" data-name="Path 6327" d="M644.85,266.38s-2.1,4.077-1.615,6.763c.49,2.745,2.588,6.394,2.979,6.4,1.12.021-.414-2.375-.414-2.375s1.279,3.417,2.164,2.686c.41-.338.028-2,.028-2s.269.721.93.05.253-4.653-.269-5.693.442-4.738-.5-6.879C647.8,264.543,646.094,264.7,644.85,266.38Z" transform="translate(-643.163 -264.875)" fill="#ff97a6"/></g><g id="Group_5537" data-name="Group 5537" transform="translate(61.737 29.213)"><g id="Group_5536" data-name="Group 5536"><path id="Path_6328" data-name="Path 6328" d="M618.6,197.3s1.884,8.07,2.6,8.8,2.6,1.346,2.777-.9-3.061-8.728-3.061-8.728Z" transform="translate(-618.599 -196.467)" fill="#ff97a6"/></g></g><g id="Group_5539" data-name="Group 5539" transform="translate(62.374 31.26)"><g id="Group_5538" data-name="Group 5538"><path id="Path_6329" data-name="Path 6329" d="M622.889,200.837a26.467,26.467,0,0,1-1.051-2.817l-2.756,1.311s.244,1.031.6,2.438C620.672,202.312,622.307,202.469,622.889,200.837Z" transform="translate(-619.082 -198.02)" fill="#c95d77"/></g></g><g id="Group_5540" data-name="Group 5540" transform="translate(54.002 16.975)"><path id="Path_6330" data-name="Path 6330" d="M614.437,199.857c-1.072-1.412-1.7-7.883-1.7-7.883-.17-3.943,5.993-4.68,7.506-4.762a10.3,10.3,0,0,1,4.936.774c1.865.79,2.342,3.179,2.738,4.948s.465,5.068-.328,6.761a8.325,8.325,0,0,1-4.984,3.567C617.719,204.083,616.1,203.085,614.437,199.857Z" transform="translate(-612.733 -187.186)" fill="#ff97a6"/></g><g id="Group_5541" data-name="Group 5541" transform="translate(71.703 38.367)"><path id="Path_6331" data-name="Path 6331" d="M648.569,250.2c-2.408,6.352-14.947,6.352-14.947,6.352a43.968,43.968,0,0,0,5.479-23.356c-.746-15.9-12.944-29.785-12.944-29.785s8.76.281,11.524,1.142c2.544.793,9.328,5.159,9.328,5.159s1.075,8.707,1.879,18.58A136.308,136.308,0,0,1,648.569,250.2Z" transform="translate(-626.157 -203.409)" fill="#99b4dd"/></g><g id="Group_5542" data-name="Group 5542" transform="translate(45.198 0)"><path id="Path_6332" data-name="Path 6332" d="M606.776,205.574c-.348-2.81-.558-5.636-.682-8.471a42.75,42.75,0,0,1,.417-8.543,12.276,12.276,0,0,1,4.668-7.275,8.158,8.158,0,0,1,4.144-1.692,7.674,7.674,0,0,1,1.167.022c.385.055.765.174,1.146.264.352.165.713.322,1.056.5l.939.68-.919.3a10.26,10.26,0,0,1,2.2-4.108,8.491,8.491,0,0,1,3.9-2.544,10.158,10.158,0,0,1,4.6-.248,13.936,13.936,0,0,1,2.219.522,12.407,12.407,0,0,1,2.135.827,9.371,9.371,0,0,1,3.43,3.026,13.192,13.192,0,0,1,1.846,4.122,20.048,20.048,0,0,1,.592,4.431l.007,4.433-.185-2.21c-.067-.744-.044-1.473-.128-2.2a19.621,19.621,0,0,0-.832-4.292,10.048,10.048,0,0,0-5.122-6.51c-2.6-1.035-5.6-1.776-8.257-.9a8.4,8.4,0,0,0-5.31,5.911l-.009.03a.557.557,0,0,1-.685.39.572.572,0,0,1-.227-.125,4.622,4.622,0,0,0-3.489-1.242,7.127,7.127,0,0,0-3.613,1.445,11.877,11.877,0,0,0-4.437,6.624,43.5,43.5,0,0,0-.712,8.363C606.578,199.918,606.677,202.745,606.776,205.574Z" transform="translate(-606.057 -174.313)" fill="#7f65c1"/></g></g><g id="Group_5563" data-name="Group 5563" transform="translate(688.832 113.925)"><g id="Group_5562" data-name="Group 5562"><g id="Group_5561" data-name="Group 5561"><g id="Group_5544" data-name="Group 5544" transform="translate(0.72 0.886)"><path id="Path_6333" data-name="Path 6333" d="M602.1,134.709a9.751,9.751,0,0,1,6.4,9.989.939.939,0,0,1-.005.121c-.051.525.783.622.91.121.012-.041.017-.08.029-.121,1.693-6.936,1.866-16.585,9.125-20.335a7.9,7.9,0,0,1,9.867,1.694c2.811,3.22,3.145,7.7,3.432,11.762a.459.459,0,0,0,.848.231l.12-.19c1.3-1.89,4.222-1.585,5.79-.145,1.924,1.758,2.252,4.667,2.4,7.114a.465.465,0,0,0,.455.456,6.261,6.261,0,0,1,6.81,6.249.441.441,0,0,0,.069.254c-6.175-.277-12.385-.087-18.565-.087h-19.8q-19.8,0-39.6.012c-7.292.005-14.678-.311-21.965.132a5.807,5.807,0,0,1,8.284-7.183.434.434,0,0,0,.633-.484c-.034-.1-.063-.2-.1-.294a30.508,30.508,0,0,1,3.018-25.72c2.288-3.6,5.985-7.374,10.6-7.16,4.413.2,7.558,4.152,8.975,8,2.006,5.443,1.067,11.538,1.826,17.194a.438.438,0,0,0,.876,0,3.438,3.438,0,0,1,4.412-2.914c2.045.617,3.129,2.782,3.312,4.775l.017.225a.464.464,0,0,0,.858.231A9.791,9.791,0,0,1,602.1,134.709Z" transform="translate(-548.042 -111.117)" fill="#e8f4f9"/></g><g id="Group_5545" data-name="Group 5545" transform="translate(101.031 41.679)"><path id="Path_6334" data-name="Path 6334" d="M624.113,142.053c.248,0,.5.011.744.028A.487.487,0,0,1,624.113,142.053Z" transform="translate(-624.113 -142.053)" fill="#e8f4f9"/></g><g id="Group_5546" data-name="Group 5546" transform="translate(94.153 34.235)"><path id="Path_6335" data-name="Path 6335" d="M619.312,136.408l.034.484c-.149-.149-.3-.3-.45-.455C619.036,136.426,619.174,136.415,619.312,136.408Z" transform="translate(-618.897 -136.408)" fill="#e8f4f9"/></g><g id="Group_5547" data-name="Group 5547" transform="translate(85.363 25.528)"><path id="Path_6336" data-name="Path 6336" d="M621.437,138.512a7.2,7.2,0,0,1,7.31,7.189.411.411,0,0,1-.1.282c-.248-.017-.5-.028-.744-.028a.442.442,0,0,1-.069-.254,6.261,6.261,0,0,0-6.809-6.249.465.465,0,0,1-.455-.456c-.149-2.447-.478-5.356-2.4-7.114-1.568-1.44-4.487-1.745-5.79.145l-.057-.041c-.029-.386-.058-.771-.087-1.158a4.955,4.955,0,0,1,5.652-.277c2.724,1.585,3.34,5.046,3.554,7.961-.139.007-.277.018-.415.029.15.156.3.306.45.455Z" transform="translate(-612.231 -129.804)" fill="#e8f4f9"/></g><g id="Group_5548" data-name="Group 5548" transform="translate(84.602 26.552)"><path id="Path_6337" data-name="Path 6337" d="M612.5,131.739c-.282-.075-.564-.15-.848-.231a3.663,3.663,0,0,1,.761-.927C612.444,130.967,612.473,131.352,612.5,131.739Z" transform="translate(-611.654 -130.581)" fill="#e8f4f9"/></g><g id="Group_5549" data-name="Group 5549" transform="translate(61.878 12.32)"><path id="Path_6338" data-name="Path 6338" d="M617.082,135.178c-.287-4.067-.621-8.542-3.432-11.762a7.9,7.9,0,0,0-9.867-1.694c-7.259,3.75-7.432,13.4-9.125,20.335h-.012a10.341,10.341,0,0,0-.224-3.3c1.452-7.258,2.753-16.019,10.6-18.531a8.637,8.637,0,0,1,9.544,2.875c2.495,3.087,3.037,7.061,3.341,10.916a3.665,3.665,0,0,0-.761.927c.284.08.566.156.848.231l.057.041-.12.19A.459.459,0,0,1,617.082,135.178Z" transform="translate(-594.421 -119.789)" fill="#e8f4f9"/></g><g id="Group_5550" data-name="Group 5550" transform="translate(61.187 31.292)"><path id="Path_6339" data-name="Path 6339" d="M594.588,134.176a10.344,10.344,0,0,1,.224,3.3l-.915-.121C594.144,136.348,594.369,135.277,594.588,134.176Z" transform="translate(-593.897 -134.176)" fill="#e8f4f9"/></g><g id="Group_5551" data-name="Group 5551" transform="translate(61.172 34.466)"><path id="Path_6340" data-name="Path 6340" d="M594.816,136.7h.012c-.012.041-.017.08-.029.121-.127.5-.961.4-.91-.121a.918.918,0,0,0,.005-.121h.007Z" transform="translate(-593.886 -136.583)" fill="#e8f4f9"/></g><g id="Group_5552" data-name="Group 5552" transform="translate(43.017 27.018)"><path id="Path_6341" data-name="Path 6341" d="M580.976,132.093c-.287-.075-.57-.156-.858-.231a10.161,10.161,0,0,1,.692-.927A7.363,7.363,0,0,1,580.976,132.093Z" transform="translate(-580.118 -130.935)" fill="#e8f4f9"/></g><g id="Group_5553" data-name="Group 5553" transform="translate(42.937 23.098)"><path id="Path_6342" data-name="Path 6342" d="M591.9,129.341a9.791,9.791,0,0,0-10.969,3.93.464.464,0,0,1-.858-.231l-.017-.226.08-.005c.289.075.571.156.858.231a7.363,7.363,0,0,0-.166-1.158A10.272,10.272,0,0,1,599,136.156c-.219,1.1-.444,2.172-.691,3.174H598.3A9.751,9.751,0,0,0,591.9,129.341Z" transform="translate(-580.057 -127.962)" fill="#e8f4f9"/></g><g id="Group_5554" data-name="Group 5554" transform="translate(34.336 22.145)"><path id="Path_6343" data-name="Path 6343" d="M578.38,127.268c2.495.294,4.038,2.534,4.528,4.845a10.155,10.155,0,0,0-.692.927l-.08.005c-.183-1.992-1.267-4.158-3.312-4.775a3.437,3.437,0,0,0-4.412,2.914.438.438,0,0,1-.876,0c.289-.034.576-.074.864-.115-.086-.633-.149-1.279-.2-1.919A4.51,4.51,0,0,1,578.38,127.268Z" transform="translate(-573.535 -127.239)" fill="#e8f4f9"/></g><g id="Group_5555" data-name="Group 5555" transform="translate(34.336 24.057)"><path id="Path_6344" data-name="Path 6344" d="M574.2,128.689c.051.64.115,1.286.2,1.919-.288.041-.575.08-.864.115A3.788,3.788,0,0,1,574.2,128.689Z" transform="translate(-573.535 -128.689)" fill="#e8f4f9"/></g><g id="Group_5556" data-name="Group 5556" transform="translate(8.876 33.378)"><path id="Path_6345" data-name="Path 6345" d="M555.171,136.189c-.214.162-.421.323-.634.484-.109-.3-.212-.611-.31-.915A6.545,6.545,0,0,1,555.171,136.189Z" transform="translate(-554.227 -135.758)" fill="#e8f4f9"/></g><g id="Group_5557" data-name="Group 5557" transform="translate(7.438)"><path id="Path_6346" data-name="Path 6346" d="M579.062,119.1c1.786,4.9,1.233,10.254,1.637,15.4a3.788,3.788,0,0,0-.663,2.033c-.76-5.656.179-11.75-1.826-17.194-1.416-3.849-4.561-7.8-8.975-8-4.614-.214-8.311,3.56-10.6,7.16a30.508,30.508,0,0,0-3.018,25.72l-.1.034a6.543,6.543,0,0,0-.944-.431,30.778,30.778,0,0,1-.841-15.358,28.957,28.957,0,0,1,6.037-13.024c2.719-3.2,6.791-5.835,11.152-4.746C574.937,111.7,577.7,115.383,579.062,119.1Z" transform="translate(-553.136 -110.445)" fill="#e8f4f9"/></g><g id="Group_5558" data-name="Group 5558" transform="translate(0.505 41.736)"><path id="Path_6347" data-name="Path 6347" d="M548.478,142.108c.138.369-.431.506-.575.156a.248.248,0,0,1-.024-.063.243.243,0,0,1,.173-.08c.138-.012.282-.017.421-.024Z" transform="translate(-547.879 -142.096)" fill="#e8f4f9"/></g><g id="Group_5559" data-name="Group 5559" transform="translate(0 32.971)"><path id="Path_6348" data-name="Path 6348" d="M557.511,136.547a.434.434,0,0,1-.633.484,5.807,5.807,0,0,0-8.284,7.183c-.138.007-.282.012-.421.024a.244.244,0,0,0-.173.08c-2.218-5.414,3.283-10.341,8.371-8.462.1.3.2.611.31.915.214-.161.421-.322.634-.484l.1-.034C557.448,136.351,557.477,136.45,557.511,136.547Z" transform="translate(-547.496 -135.449)" fill="#e8f4f9"/></g><g id="Group_5560" data-name="Group 5560" transform="translate(0.432 41.499)"><path id="Path_6349" data-name="Path 6349" d="M570.455,142.021q19.805-.01,39.6-.012h19.8c6.18,0,12.39-.19,18.565.087a.487.487,0,0,0,.744.028c.161.007.328.012.489.024a.288.288,0,0,1,0,.576c-7.436.4-14.936.138-22.379.138q-19.805,0-39.6-.007-9.9,0-19.8-.005c-6.579-.005-13.238.265-19.8-.156a.257.257,0,0,1-.173-.438.253.253,0,0,0,.024.063c.144.351.713.214.575-.156l-.005-.012C555.777,141.71,563.163,142.027,570.455,142.021Z" transform="translate(-547.823 -141.917)" fill="#e8f4f9"/></g></g></g></g><g id="Group_5575" data-name="Group 5575" transform="translate(291.347 99.527)"><g id="Group_5574" data-name="Group 5574" transform="translate(0)"><g id="Group_5573" data-name="Group 5573"><g id="Group_5564" data-name="Group 5564" transform="translate(0.837 0.706)"><path id="Path_6350" data-name="Path 6350" d="M296.669,123.054a.331.331,0,0,0,.353.349l-.013.339c-8.566-.33-17.16-.2-25.735-.181-4.311,0-8.617,0-12.928.022q-3.226.014-6.461.033c-1.7.014-3.473-.083-5.181.1l-.009-.088a.183.183,0,0,0,.2-.171,6.86,6.86,0,0,1,3.556-6.266,6.468,6.468,0,0,1,7.063,1l.171.158a.348.348,0,0,0,.587-.241c.787-7.318,4.288-15.367,11.983-17.57a11.277,11.277,0,0,1,10.577,2.156,9.076,9.076,0,0,1,2.616,9.361c-.088.274.27.592.522.4.07-.051.14-.1.21-.149a3.382,3.382,0,0,1,5.227,3.5.366.366,0,0,0,.349.456c.112,0,.228-.009.34-.009A6.535,6.535,0,0,1,296.669,123.054Z" transform="translate(-246.695 -100.062)" fill="#e8f4f9"/></g><g id="Group_5565" data-name="Group 5565" transform="translate(44.234 16.179)"><path id="Path_6351" data-name="Path 6351" d="M279.675,111.8a7.25,7.25,0,0,1,7.234,7.519.357.357,0,0,1-.373.349.331.331,0,0,1-.353-.349,6.535,6.535,0,0,0-6.577-6.8l0-.256C279.637,112.1,279.66,111.95,279.675,111.8Z" transform="translate(-279.605 -111.796)" fill="#e8f4f9"/></g><g id="Group_5566" data-name="Group 5566" transform="translate(43.893 16.179)"><path id="Path_6352" data-name="Path 6352" d="M279.347,111.805c.135,0,.274-.009.41-.009-.014.154-.038.307-.066.462C279.575,112.109,279.459,111.954,279.347,111.805Z" transform="translate(-279.347 -111.796)" fill="#e8f4f9"/></g><g id="Group_5567" data-name="Group 5567" transform="translate(38.269 11.609)"><path id="Path_6353" data-name="Path 6353" d="M275.315,108.739a4.1,4.1,0,0,1,5.8,4.162c-.136,0-.276.005-.41.009.112.149.228.3.344.452l0,.256c-.112,0-.228.005-.34.009a.366.366,0,0,1-.349-.456,3.382,3.382,0,0,0-5.227-3.5l-.048-.066A8.5,8.5,0,0,0,275.315,108.739Z" transform="translate(-275.082 -108.33)" fill="#e8f4f9"/></g><g id="Group_5568" data-name="Group 5568" transform="translate(37.748 12.017)"><path id="Path_6354" data-name="Path 6354" d="M275.441,108.64a8.506,8.506,0,0,1-.233.861c-.171-.134-.344-.265-.521-.4A4.359,4.359,0,0,1,275.441,108.64Z" transform="translate(-274.687 -108.64)" fill="#e8f4f9"/></g><g id="Group_5569" data-name="Group 5569" transform="translate(11.725 18.074)"><path id="Path_6355" data-name="Path 6355" d="M255.539,113.662c-.2.079-.39.158-.587.243.018-.224.042-.447.07-.671C255.2,113.369,255.371,113.513,255.539,113.662Z" transform="translate(-254.952 -113.233)" fill="#e8f4f9"/></g><g id="Group_5570" data-name="Group 5570" transform="translate(11.651)"><path id="Path_6356" data-name="Path 6356" d="M273.447,99.762c5.42,1.062,9.506,6.3,8.3,11.782a4.359,4.359,0,0,0-.754.462c.177.135.349.265.521.4l.047.066c-.07.046-.14.1-.21.149-.252.191-.611-.127-.522-.4a9.076,9.076,0,0,0-2.616-9.361,11.277,11.277,0,0,0-10.577-2.156c-7.694,2.2-11.2,10.251-11.983,17.57a.348.348,0,0,1-.587.241l-.171-.158.074-.083c.2-.084.392-.163.587-.243-.167-.149-.34-.293-.517-.429a24.669,24.669,0,0,1,3.361-10.413C261.567,102.1,267.339,98.561,273.447,99.762Z" transform="translate(-254.896 -99.527)" fill="#e8f4f9"/></g><g id="Group_5571" data-name="Group 5571" transform="translate(0.626 16.591)"><path id="Path_6357" data-name="Path 6357" d="M257.7,113.591c-.028.224-.051.447-.07.671l-.074.083a6.468,6.468,0,0,0-7.063-1,6.86,6.86,0,0,0-3.556,6.266.183.183,0,0,1-.2.171.143.143,0,0,1-.154-.125,6.833,6.833,0,0,1,3.766-6.89A7.161,7.161,0,0,1,257.7,113.591Z" transform="translate(-246.535 -112.109)" fill="#e8f4f9"/></g><g id="Group_5572" data-name="Group 5572" transform="translate(0 24.166)"><path id="Path_6358" data-name="Path 6358" d="M271.477,117.893c8.575-.015,17.169-.149,25.735.181.042,0,.079.005.121.005a.1.1,0,0,1,0,.21c-8.608.335-17.239.2-25.856.186-4.311-.005-8.617-.005-12.928-.024q-3.226-.014-6.461-.032a38.1,38.1,0,0,1-6.01-.21c-.022-.005-.022-.047,0-.051.276-.046.55-.084.829-.112,1.708-.181,3.481-.083,5.181-.1q3.234-.022,6.461-.033C262.859,117.9,267.166,117.9,271.477,117.893Z" transform="translate(-246.06 -117.853)" fill="#e8f4f9"/></g></g></g></g><g id="Group_5577" data-name="Group 5577" transform="translate(813.889 152.824)"><g id="Group_5576" data-name="Group 5576"><path id="Path_6359" data-name="Path 6359" d="M662.78,143.6c-1.895,6.779-2.914,13.913-4.34,20.808-.61,2.955-1.236,5.906-1.851,8.86-.574-.823-1.148-1.646-1.735-2.458-2.571-3.563-5.326-8.856-10.11-9.492a2.17,2.17,0,0,0-2.077,1.581c-1.486,4.272,2.366,9.555,4.3,13.151,2.406,4.47,4.979,8.874,7.649,13.192,2.238,3.618,8.557,3.311,9.542-1.247q2.3-10.661,4.561-21.332c1.518-7.179,3.382-14.4,4.349-21.669C673.863,139.029,664.324,138.079,662.78,143.6Z" transform="translate(-642.333 -139.945)" fill="#ff5e4d"/></g></g><g id="Group_5579" data-name="Group 5579" transform="translate(371.905 120.255)"><g id="Group_5578" data-name="Group 5578"><path id="Path_6360" data-name="Path 6360" d="M347.665,133.849c-3.575-3.12-8.628-3.175-13.441-2.975-.187-4.362-.2-16.631-6.01-15.563-3.134.575-4.01,4.229-4.371,6.924-.4,2.993-.663,5.992-.874,9-.852.037-1.7.069-2.556.112-3.094.16-6.286.075-9.256,1.046a5.678,5.678,0,0,0,0,10.852c2.97.971,6.162.885,9.256,1.046.692.036,1.385.059,2.076.091-.193,3.463-.692,7.719,1.4,10.429,2.674,3.467,6.757,3.467,9.43,0,2.033-2.636,1.63-6.633,1.421-10.024,4.657.171,9.481.015,12.929-2.995A5.649,5.649,0,0,0,347.665,133.849Z" transform="translate(-307.151 -115.246)" fill="#ff5e4d"/></g></g><g id="Group_5618" data-name="Group 5618" transform="translate(840.133 214.374)"><g id="Group_5582" data-name="Group 5582" transform="translate(28.402 349.431)"><g id="Group_5580" data-name="Group 5580" transform="translate(0 2.984)"><path id="Path_6361" data-name="Path 6361" d="M683.841,458.22c.837-1.7,5.232-3.273,8.723-4.342-1.043.659-2.074,1.6-.434,2.066,2.4.682,7.667-.081,9.223-1.816a11.074,11.074,0,0,1,.72,4.321C702.053,460.04,682.484,460.971,683.841,458.22Z" transform="translate(-683.774 -453.878)" fill="#3b2b5b"/></g><g id="Group_5581" data-name="Group 5581" transform="translate(7.498)"><path id="Path_6362" data-name="Path 6362" d="M690.318,456.665c-1.64-.465-.609-1.407.434-2.066,2.165-.662,3.982-1.13,4.386-1.309a2.549,2.549,0,0,0,1.352-1.444l1.1-.231s-.708,1.513,1.331,2.26c.342.125.455.6.625.974C697.985,456.585,692.72,457.347,690.318,456.665Z" transform="translate(-689.46 -451.615)" fill="#ff97a6"/></g></g><g id="Group_5585" data-name="Group 5585" transform="translate(85.054 349.498)"><g id="Group_5583" data-name="Group 5583" transform="translate(0 3.059)"><path id="Path_6363" data-name="Path 6363" d="M741.118,462.344c.612-1.767-5.943-7.326-8.433-8.358.75.665,1.825,2.032.673,2.566-1.688.781-5.048-.43-6.179-2.214a17.007,17.007,0,0,0-.436,4.564C726.783,460.574,739.682,466.487,741.118,462.344Z" transform="translate(-726.736 -453.986)" fill="#3b2b5b"/></g><g id="Group_5584" data-name="Group 5584" transform="translate(0.443)"><path id="Path_6364" data-name="Path 6364" d="M735.2,458.812c1.153-.533-1.5-3.169-2.25-3.833a16.988,16.988,0,0,0-2.788-1.659,2.6,2.6,0,0,1-.981-1.482l-1.28-.171a3.009,3.009,0,0,1-.4,2.37,4.315,4.315,0,0,0-.426,1.042C728.2,456.861,733.511,459.592,735.2,458.812Z" transform="translate(-727.072 -451.666)" fill="#ff97a6"/></g></g><g id="Group_5586" data-name="Group 5586" transform="translate(13.149 150.761)"><path id="Path_6365" data-name="Path 6365" d="M720.982,300.953c-3.7,1,22.553-.216,29.791,88.528,2.023,24.8-.674,87.225-3.609,109.272-.406,3.05-1.084,4.673-1.782.936-1.94-10.386-18.735-76.577-22.189-94.044q-.861-4.349-1.977-8.637L706.56,340.751l4.3,67.877-7.8,92.115s-.824,2.392-1.647-1.4c-5.69-26.216-27.764-126.536-28.943-149.592-1.866-36.491,6.764-36.963,9.832-43.771C687.095,307.487,712.709,306.125,720.982,300.953Z" transform="translate(-672.207 -300.953)" fill="#ff97a6"/></g><g id="Group_5587" data-name="Group 5587" transform="translate(11.697 153.892)"><path id="Path_6366" data-name="Path 6366" d="M683.7,304.655s22.659,2.207,41.073-1.328c0,0,19.544,5.984,26.544,87.444,0,0-22.982,26.593-66.446,28.231C684.866,419,654.7,321.321,683.7,304.655Z" transform="translate(-671.106 -303.327)" fill="#3b2b5b"/></g><g id="Group_5588" data-name="Group 5588" transform="translate(58.227 104.689)"><path id="Path_6367" data-name="Path 6367" d="M709.861,266.014s6.447.865,15.151,14.526a57.961,57.961,0,0,1,9.016,32.544l-11.59-3.17s-5.005-26.375-14.3-34.634C703.377,271.049,709.861,266.014,709.861,266.014Z" transform="translate(-706.392 -266.014)" fill="#99b4dd"/></g><g id="Group_5589" data-name="Group 5589" transform="translate(22.059 70.663)"><path id="Path_6368" data-name="Path 6368" d="M678.969,261.07c.458,3.8,3.707,16.807,26.792,16.152,0,0,18.131-1.954,22.009-12.184a1.043,1.043,0,0,0-.968-1.4c-2.49-.013-7.7-1.059-11.187-8.853-4.721-10.56-8.089-20.455-17.811-10.357,0,0-6.4-3.554-9.589,5.731-3,8.707-3.828,10.723-8.369,10.059A.772.772,0,0,0,678.969,261.07Z" transform="translate(-678.964 -240.21)" fill="#ffcb48"/></g><g id="Group_5590" data-name="Group 5590" transform="translate(17.994 102.626)"><path id="Path_6369" data-name="Path 6369" d="M680.2,297.279c.824,6.835,1.233,17.746,1.611,20.016,4.628.89,34.832,2,42.989-2.235,1.151-7.721,2.418-30.4-.67-38.386-2.341-6.053-1.475-8.26-4.183-10.09-2.956-2-5.148-1.846-13.359-2.087-27.416-.806-30.708,9.074-30.708,9.074S678.968,287.05,680.2,297.279Z" transform="translate(-675.881 -264.45)" fill="#aacbe8"/></g><g id="Group_5591" data-name="Group 5591" transform="translate(0 107.01)"><path id="Path_6370" data-name="Path 6370" d="M686.522,275.852l-9.4,27.078s-10.456,16.864-14.2,6.668c-3.807-10.361,8.923-34.245,22.2-41.825Z" transform="translate(-662.235 -267.774)" fill="#aacbe8"/></g><g id="Group_5592" data-name="Group 5592" transform="translate(2.059 123.466)"><path id="Path_6371" data-name="Path 6371" d="M670.548,294.345l23.725-13.669a3.127,3.127,0,0,1,3.434.191c2.408,1.795,6.494,5.268,6.185,7.969-1.242,10.79-25.418,23.7-35.934,20.985C657.27,307.06,670.548,294.345,670.548,294.345Z" transform="translate(-663.797 -280.253)" fill="#aacbe8"/></g><g id="Group_5597" data-name="Group 5597" transform="translate(40.811 84.891)"><g id="Group_5593" data-name="Group 5593" transform="translate(0 8.521)"><path id="Path_6372" data-name="Path 6372" d="M696.438,257.462s1.437,9.986.955,11.125-2.35,2.68-3.55.21-.4-11.253-.4-11.253Z" transform="translate(-693.184 -257.462)" fill="#ff97a6"/></g><g id="Group_5596" data-name="Group 5596" transform="translate(0.216)"><g id="Group_5595" data-name="Group 5595"><g id="Group_5594" data-name="Group 5594"><path id="Path_6373" data-name="Path 6373" d="M697.433,251.111s-.02,13.322-.223,15.188c-.175,1.622-2.323,2.9-3.448-.44s.4-14.858.4-14.858Z" transform="translate(-693.348 -251)" fill="#c95d77"/></g></g></g></g><g id="Group_5598" data-name="Group 5598" transform="translate(36.636 81.197)"><path id="Path_6374" data-name="Path 6374" d="M690.127,258.387c-.52-1.626.984-7.7.984-7.7,1.109-3.635,6.943-2.329,8.342-1.919a9.927,9.927,0,0,1,4.236,2.285c1.439,1.315,1.106,3.638.9,5.371s-1.2,4.751-2.465,6.034a8.026,8.026,0,0,1-5.67,1.642C691.753,263.278,690.6,261.851,690.127,258.387Z" transform="translate(-690.018 -248.198)" fill="#ff97a6"/></g><g id="Group_5599" data-name="Group 5599" transform="translate(22.05 70.508)"><path id="Path_6375" data-name="Path 6375" d="M707.408,240.969a4.806,4.806,0,0,0-2.632-.549,6.365,6.365,0,0,0-2.515.86,17.584,17.584,0,0,0-4.117,3.506l-.223.241-.342-.157a6.01,6.01,0,0,0-3.22-.505,5.294,5.294,0,0,0-2.9,1.408,10.389,10.389,0,0,0-1.953,2.771,34.451,34.451,0,0,0-1.3,3.3,32.181,32.181,0,0,1-3.014,6.664,5.739,5.739,0,0,1-1.315,1.386,4.066,4.066,0,0,1-1.809.629,7.516,7.516,0,0,1-1.843-.112c-.311-.041-.586-.146-.839-.009a.741.741,0,0,0-.414.708.8.8,0,0,1,.352-.815,1.4,1.4,0,0,1,.926-.112,7.244,7.244,0,0,0,1.76-.07,3.86,3.86,0,0,0,1.519-.691,5.171,5.171,0,0,0,1.08-1.3,18.168,18.168,0,0,0,1.428-3.227c.406-1.121.794-2.259,1.171-3.4.723-2.246,1.588-4.75,3.5-6.542a6.216,6.216,0,0,1,3.526-1.642,6.821,6.821,0,0,1,3.8.741l-.566.084a18.286,18.286,0,0,1,4.522-3.382,6.42,6.42,0,0,1,2.773-.661A4.563,4.563,0,0,1,707.408,240.969Z" transform="translate(-678.957 -240.093)" fill="#fcd98b"/></g><g id="Group_5600" data-name="Group 5600" transform="translate(39.295 121.933)"><path id="Path_6376" data-name="Path 6376" d="M692.035,281.814s2.436-2.532,3.446-2.712,1.654,1.92,1.654,1.92Z" transform="translate(-692.035 -279.091)" fill="#ff97a6"/></g><g id="Group_5604" data-name="Group 5604" transform="translate(35.567 110.046)"><g id="Group_5601" data-name="Group 5601" transform="translate(0.901 1.453)"><path id="Rectangle_686" data-name="Rectangle 686" d="M.26,0H1.944A.26.26,0,0,1,2.2.26V13.744a0,0,0,0,1,0,0H0a0,0,0,0,1,0,0V.26A.26.26,0,0,1,.26,0Z" transform="translate(0 1.287) rotate(-35.733)" fill="#30193b"/></g><g id="Group_5602" data-name="Group 5602"><path id="Path_6377" data-name="Path 6377" d="M691.406,271.882l-.9.645s-1.386-1.254-1.3-1.8a1.117,1.117,0,0,1,.9-.645C690.657,270.169,691.406,271.882,691.406,271.882Z" transform="translate(-689.208 -270.077)" fill="#7f65c1"/></g><g id="Group_5603" data-name="Group 5603" transform="translate(0.622 3.125)"><path id="Path_6378" data-name="Path 6378" d="M693.854,277.474l-.555.4s-3.41-3.576-3.618-5.028c-.024-.169.555-.4.555-.4Z" transform="translate(-689.679 -272.446)" fill="#7f65c1"/></g></g><g id="Group_5605" data-name="Group 5605" transform="translate(37.673 122.573)"><path id="Path_6379" data-name="Path 6379" d="M692.427,281.659a27.844,27.844,0,0,1,7.756-2.073c3.313-.154,3.591,1.524,2.693,2.669a4.881,4.881,0,0,1-1.145,4.11c-1.5,1.5-7.092.3-8.408-.191-.832-.309-2.529-1.481-2.519-2.707C690.812,282.754,692.427,281.659,692.427,281.659Z" transform="translate(-690.805 -279.577)" fill="#ff97a6"/></g><g id="Group_5606" data-name="Group 5606" transform="translate(6.22 132.049)"><path id="Path_6380" data-name="Path 6380" d="M702.886,286.762a11.837,11.837,0,0,1-1.862,5.251,25.405,25.405,0,0,1-3.584,4.338,42.868,42.868,0,0,1-9.05,6.617,46.734,46.734,0,0,1-10.358,4.274c-3.584.938-7.467,1.567-11.08.505a16.838,16.838,0,0,0,5.493-.054,31.912,31.912,0,0,0,5.339-1.288,57.479,57.479,0,0,0,10.055-4.427,51.413,51.413,0,0,0,9.008-6.261,25.231,25.231,0,0,0,3.719-4.014A12.523,12.523,0,0,0,702.886,286.762Z" transform="translate(-666.952 -286.762)" fill="#b7d9ed"/></g><g id="Group_5607" data-name="Group 5607" transform="translate(8.811 123.31)"><path id="Path_6381" data-name="Path 6381" d="M668.917,294.383c2.123-1.493,4.308-2.879,6.5-4.247s4.42-2.683,6.654-3.988c2.246-1.279,4.493-2.557,6.784-3.758l3.439-1.8a3.259,3.259,0,0,1,3.778.314,3.087,3.087,0,0,0-3.5.168l-3.282,2.073c-2.188,1.381-4.42,2.683-6.654,3.985-2.247,1.279-4.5,2.557-6.787,3.758S671.273,293.295,668.917,294.383Z" transform="translate(-668.917 -280.135)" fill="#b7d9ed"/></g><g id="Group_5608" data-name="Group 5608" transform="translate(46.424 153.892)"><path id="Path_6382" data-name="Path 6382" d="M697.441,305.661s12.547-1.108,18.936-2.334c0,0,19.544,5.984,26.544,87.444a82.445,82.445,0,0,1-14.165,11.74c-6.232,4.152-16.614,8.811-16.614,8.811s8.148-35.208,4.23-64.368C713.072,322.389,697.441,305.661,697.441,305.661Z" transform="translate(-697.441 -303.327)" fill="#30193b"/></g><g id="Group_5609" data-name="Group 5609" transform="translate(46.424 102.673)"><path id="Path_6383" data-name="Path 6383" d="M697.441,318.038s16.873,0,20.49-2.989c1.151-7.721,2.418-30.4-.67-38.386-2.34-6.053-1.475-8.26-4.183-10.09-2.956-2-13.359-2.087-13.359-2.087s7.736,9.493,7.375,19.26C706.509,299.6,697.441,318.038,697.441,318.038Z" transform="translate(-697.441 -264.485)" fill="#99b4dd"/></g><g id="Group_5610" data-name="Group 5610" transform="translate(46.425 111.651)"><path id="Path_6384" data-name="Path 6384" d="M703.951,271.294l-6.508,34.344,21.424,1.22,7.28-33.752Z" transform="translate(-697.442 -271.294)" fill="#fff"/></g><g id="Group_5611" data-name="Group 5611" transform="translate(55.28 137.829)"><path id="Path_6385" data-name="Path 6385" d="M704.781,302.34c1.808,8.189,17.558,10.1,21.332,10.5,7.192.758,9.3-5.218,9.354-9.658.016-1.357-1.437-9.986-2.255-10.735-2.681-2.457-6.767,3.265-10.262,2C712.07,290.509,701.447,287.244,704.781,302.34Z" transform="translate(-704.158 -291.146)" fill="#99b4dd"/></g><g id="Group_5613" data-name="Group 5613" transform="translate(50.699 133.157)"><g id="Group_5612" data-name="Group 5612"><path id="Path_6386" data-name="Path 6386" d="M709.56,296.6a1.1,1.1,0,0,0,.145-.912,25.035,25.035,0,0,0-1.669-4.573c-.778-1.246-4.362-3.72-5.144-3.5s.655,1.735.655,1.735-1.482-1.723-2.351-1.183a1.27,1.27,0,0,0-.371,1.6,17.99,17.99,0,0,0,.791,2.69,14.226,14.226,0,0,0,1.689,2.656,11.465,11.465,0,0,0,1.787,1.216A20.239,20.239,0,0,0,708.484,298,8.409,8.409,0,0,0,709.56,296.6Z" transform="translate(-700.683 -287.603)" fill="#ff97a6"/></g></g><g id="Group_5617" data-name="Group 5617" transform="translate(62.551)"><g id="Group_5616" data-name="Group 5616"><g id="Group_5615" data-name="Group 5615"><g id="Group_5614" data-name="Group 5614"><path id="Path_6387" data-name="Path 6387" d="M742.111,196.1a12.717,12.717,0,0,1-1.521,6.841l-1-.545a11.507,11.507,0,0,0,1.407-5.73c.261-.148.522-.3.783-.421C741.895,196.186,742,196.141,742.111,196.1Z" transform="translate(-700.138 -183.603)" fill="#e2d1b3"/><path id="Path_6388" data-name="Path 6388" d="M741.775,195.975a2.483,2.483,0,0,1,.012.409c-.113.045-.216.09-.33.146-.261.125-.522.273-.783.421q0-.443-.033-.885l-.034-.374c.124-.069.237-.125.363-.182.239-.113.488-.227.726-.318C741.731,195.453,741.753,195.714,741.775,195.975Z" transform="translate(-699.814 -183.891)" fill="#e2d1b3"/><path id="Path_6389" data-name="Path 6389" d="M749.488,198.56l.591.952c.057-.034.124-.067.181-.1a11.507,11.507,0,0,1-1.407,5.73l1,.545a12.717,12.717,0,0,0,1.52-6.841,12.048,12.048,0,0,1,13.218,2.472,11.889,11.889,0,0,1,1.134,14.568l-.284.4.363.33a17.687,17.687,0,1,1-27.094,22.5l-.34-.522-.488.386a17,17,0,0,1-26.13-19.935,12.889,12.889,0,0,1,6.8-7.181,9.037,9.037,0,0,1,7.853.567c.419,1.418.9,2.848,1.361,4.232l.193.556,1.067-.363-.182-.556c-.317-.953-.646-1.917-.952-2.893l.7-.68a7.622,7.622,0,0,0-1.225-1.022,34.942,34.942,0,0,1-1.543-8.487c-.216-5.151,1.383-9.746,4.379-12.583a12.349,12.349,0,0,1,15.555-.76,12.192,12.192,0,0,1,4.437,8.282C749.953,198.276,749.715,198.413,749.488,198.56Z" transform="translate(-709.399 -186.351)" fill="#e2d1b3"/><path id="Path_6390" data-name="Path 6390" d="M740.811,195.945q.034.441.033.885c-.057.034-.124.067-.181.1l-.591-.952c.227-.148.465-.285.7-.409Z" transform="translate(-699.984 -183.771)" fill="#e2d1b3"/><path id="Path_6391" data-name="Path 6391" d="M724.52,206.866l-.7.68c-.159-.51-.318-1.021-.465-1.52-.022-.057-.034-.125-.057-.182A7.628,7.628,0,0,1,724.52,206.866Z" transform="translate(-705.33 -180.497)" fill="#e2d1b3"/><path id="Path_6392" data-name="Path 6392" d="M725,210.264l.182.556-1.067.363-.193-.556c-.466-1.383-.942-2.814-1.361-4.232a1.087,1.087,0,0,1,.158.091,6.857,6.857,0,0,1,1.214,1l.113-.113C724.356,208.347,724.686,209.311,725,210.264Z" transform="translate(-705.563 -180.322)" fill="#e2d1b3"/><path id="Path_6393" data-name="Path 6393" d="M723.689,206.215c.148.5.306,1.01.465,1.52l-.113.113a6.853,6.853,0,0,0-1.214-1,1.087,1.087,0,0,0-.158-.091c-.024-.079-.046-.148-.069-.227-.125-.431-.249-.862-.363-1.282a7.672,7.672,0,0,1,1.213.646,1.034,1.034,0,0,1,.182.136C723.655,206.09,723.666,206.158,723.689,206.215Z" transform="translate(-705.667 -180.686)" fill="#e2d1b3"/><path id="Path_6394" data-name="Path 6394" d="M743.042,189.254a13.29,13.29,0,0,1,4.822,8.669c-.239.091-.488.2-.727.318-.125.057-.239.113-.363.182a12.191,12.191,0,0,0-4.437-8.282,12.349,12.349,0,0,0-15.555.76c-3,2.836-4.6,7.432-4.379,12.582a34.952,34.952,0,0,0,1.543,8.487,1.037,1.037,0,0,0-.182-.136,7.677,7.677,0,0,0-1.213-.646,34.985,34.985,0,0,1-1.283-7.659c-.227-5.48,1.5-10.382,4.743-13.445A13.5,13.5,0,0,1,743.042,189.254Z" transform="translate(-705.982 -186.622)" fill="#e2d1b3"/><path id="Path_6395" data-name="Path 6395" d="M718.977,235.238a3.225,3.225,0,0,1-1.656,4.527,3.074,3.074,0,0,1-2.61-.421,2.893,2.893,0,0,1-.533-4.663l.033.034a3.193,3.193,0,0,1,4.766.522Z" transform="translate(-708.535 -171.564)" fill="#e2d1b3"/><path id="Path_6396" data-name="Path 6396" d="M719.446,238.189a3.023,3.023,0,0,0-4.959-3.142l-.033-.034a2.893,2.893,0,0,0,.533,4.663,2.868,2.868,0,0,0,4.46-1.486Zm1.065.386a4.264,4.264,0,0,1-2.563,2.61,4.218,4.218,0,0,1-1.192.181,4.39,4.39,0,0,1-2.393-.737,4.028,4.028,0,0,1-.727-6.41,4.356,4.356,0,0,1,3.438-1.362l-.01.239c.01,0,.022.011.033.011a3.954,3.954,0,0,1,3.415,5.47Z" transform="translate(-708.811 -171.894)" fill="#e2d1b3"/><path id="Path_6397" data-name="Path 6397" d="M714.1,243.469a1.381,1.381,0,0,1-1.85,1.737,1.5,1.5,0,0,1-1.1-1.022,1.543,1.543,0,0,1,.521-1.452,1.644,1.644,0,0,1,1.1-.465,1.048,1.048,0,0,1,.33.046h.011A1.531,1.531,0,0,1,714.1,243.469Z" transform="translate(-709.209 -168.892)" fill="#e2d1b3"/><path id="Path_6398" data-name="Path 6398" d="M714.026,245.22a1.675,1.675,0,0,0-.636-2.632h-.01a1.05,1.05,0,0,0-.33-.046,1.644,1.644,0,0,0-1.1.465,1.543,1.543,0,0,0-.521,1.452,1.505,1.505,0,0,0,1.1,1.022A1.554,1.554,0,0,0,714.026,245.22Zm1.452-1.737a2.645,2.645,0,0,1-.68,2.553,2.5,2.5,0,0,1-1.735.658,2.76,2.76,0,0,1-.852-.124,2.634,2.634,0,0,1-1.883-1.85,2.661,2.661,0,0,1,.85-2.541,2.629,2.629,0,0,1,2.531-.68A2.656,2.656,0,0,1,715.477,243.483Z" transform="translate(-709.483 -169.167)" fill="#e2d1b3"/><path id="Path_6399" data-name="Path 6399" d="M766,213.653a11.889,11.889,0,0,0-1.134-14.568,12.048,12.048,0,0,0-13.218-2.472,2.483,2.483,0,0,0-.012-.409c-.022-.261-.045-.522-.079-.783A12.66,12.66,0,0,1,767.2,213.892a19.694,19.694,0,0,1-1.259,27.888,18.106,18.106,0,0,1-11.653,4.017,20.478,20.478,0,0,1-3.2-.249A18.817,18.817,0,0,1,738.37,238a18.13,18.13,0,0,1-27.389-21.626,13.982,13.982,0,0,1,7.42-7.794,10.407,10.407,0,0,1,7.841.1c.113.419.237.851.363,1.282.022.079.045.148.069.227a9.036,9.036,0,0,0-7.853-.567,12.889,12.889,0,0,0-6.8,7.181,17,17,0,0,0,26.13,19.935l.488-.386.34.522a17.685,17.685,0,1,0,27.094-22.5l-.363-.33Z" transform="translate(-709.671 -184.12)" fill="#e2d1b3"/></g></g></g></g></g><g id="Group_5684" data-name="Group 5684" transform="translate(393.379 265.552)"><g id="Group_5619" data-name="Group 5619" transform="translate(0 0)"><rect id="Rectangle_687" data-name="Rectangle 687" width="166.792" height="192.017" rx="5.254" transform="translate(0.202 0) rotate(0.06)" fill="#f9f9f9" stroke="#d3d3d3" stroke-miterlimit="10" stroke-width="1"/></g><g id="Group_5635" data-name="Group 5635" transform="translate(16.369 76.226)"><g id="Group_5622" data-name="Group 5622" transform="translate(0 6.591)"><g id="Group_5621" data-name="Group 5621"><g id="Group_5620" data-name="Group 5620"><path id="Path_6400" data-name="Path 6400" d="M337.175,343.4a1.317,1.317,0,0,1-.886-2.3l36.823-32.916a1.318,1.318,0,0,1,1.621-.107l34.94,23.784,47.863-43.291a1.317,1.317,0,1,1,1.767,1.954L410.67,334.517a1.318,1.318,0,0,1-1.625.112L374.1,310.84l-36.054,32.23A1.311,1.311,0,0,1,337.175,343.4Z" transform="translate(-335.85 -288.237)" fill="#ff5e4d"/></g></g></g><g id="Group_5625" data-name="Group 5625" transform="translate(111.819)"><g id="Group_5624" data-name="Group 5624"><g id="Group_5623" data-name="Group 5623"><path id="Path_6401" data-name="Path 6401" d="M420.649,290.717c1.05-.624,19.615-7.478,19.615-7.478l-10.235,19.445-1.464-8.975Z" transform="translate(-420.649 -283.239)" fill="#393b5b"/></g></g></g><g id="Group_5628" data-name="Group 5628" transform="translate(31.799 23.308)"><g id="Group_5627" data-name="Group 5627"><g id="Group_5626" data-name="Group 5626"><path id="Path_6402" data-name="Path 6402" d="M371.175,306.54a5.6,5.6,0,1,1-5.583-5.625A5.6,5.6,0,0,1,371.175,306.54Z" transform="translate(-359.965 -300.915)" fill="#393b5b"/></g></g></g><g id="Group_5631" data-name="Group 5631" transform="translate(65.84 44.546)"><g id="Group_5630" data-name="Group 5630" transform="translate(0 0)"><g id="Group_5629" data-name="Group 5629"><circle id="Ellipse_156" data-name="Ellipse 156" cx="5.604" cy="5.604" r="5.604" transform="translate(0 10.682) rotate(-72.368)" fill="#393b5b"/></g></g></g><g id="Group_5634" data-name="Group 5634" transform="translate(0.121 0.611)"><g id="Group_5633" data-name="Group 5633"><g id="Group_5632" data-name="Group 5632"><path id="Path_6403" data-name="Path 6403" d="M471.314,364.756H471.3l-134.046-.508a1.318,1.318,0,0,1-1.312-1.323l.3-77.912a1.318,1.318,0,0,1,1.309-1.312h.012a1.317,1.317,0,0,1,1.313,1.323l-.29,76.595,132.728.5a1.317,1.317,0,0,1,0,2.635Z" transform="translate(-335.942 -283.702)" fill="#aacbe8"/></g></g></g></g><g id="Group_5637" data-name="Group 5637" transform="translate(16.627 17.647)"><g id="Group_5636" data-name="Group 5636" transform="translate(0 0)"><rect id="Rectangle_688" data-name="Rectangle 688" width="27.568" height="9.095" transform="translate(0.01 0) rotate(0.061)" fill="#aacbe8"/></g></g><g id="Group_5639" data-name="Group 5639" transform="translate(46.984 21.465)"><g id="Group_5638" data-name="Group 5638"><path id="Path_6404" data-name="Path 6404" d="M465.4,243.349l-105.566-.112a.763.763,0,0,1,0-1.526l105.566.112a.763.763,0,0,1,0,1.526Z" transform="translate(-359.067 -241.711)" fill="#aacbe8"/></g></g><g id="Group_5641" data-name="Group 5641" transform="translate(16.611 32.82)"><g id="Group_5640" data-name="Group 5640" transform="translate(0 0)"><rect id="Rectangle_689" data-name="Rectangle 689" width="27.568" height="9.095" transform="translate(0.01 0) rotate(0.061)" fill="#aacbe8"/></g></g><g id="Group_5643" data-name="Group 5643" transform="translate(46.968 36.638)"><g id="Group_5642" data-name="Group 5642"><path id="Path_6405" data-name="Path 6405" d="M465.382,254.855l-105.565-.111a.763.763,0,0,1,0-1.527l105.565.112a.763.763,0,1,1,0,1.526Z" transform="translate(-359.055 -253.217)" fill="#aacbe8"/></g></g><g id="Group_5645" data-name="Group 5645" transform="translate(16.593 49.49)"><g id="Group_5644" data-name="Group 5644" transform="translate(0 0)"><rect id="Rectangle_690" data-name="Rectangle 690" width="27.568" height="9.095" transform="translate(0.01 0) rotate(0.06)" fill="#aacbe8"/></g></g><g id="Group_5647" data-name="Group 5647" transform="translate(46.951 53.308)"><g id="Group_5646" data-name="Group 5646"><path id="Path_6406" data-name="Path 6406" d="M465.369,267.5,359.8,267.385a.763.763,0,0,1,0-1.526l105.565.111a.764.764,0,0,1,0,1.527Z" transform="translate(-359.042 -265.859)" fill="#aacbe8"/></g></g><g id="Group_5649" data-name="Group 5649" transform="translate(16.584 63.012)"><g id="Group_5648" data-name="Group 5648" transform="translate(0 0)"><rect id="Rectangle_691" data-name="Rectangle 691" width="136.681" height="4.799" transform="translate(0.005 0) rotate(0.061)" fill="#d5eaf5"/></g></g><g id="Group_5651" data-name="Group 5651" transform="translate(47.716 49.523)"><g id="Group_5650" data-name="Group 5650" transform="translate(0 0)"><rect id="Rectangle_692" data-name="Rectangle 692" width="105.566" height="1.986" transform="matrix(1, 0.001, -0.001, 1, 0.002, 0)" fill="#d5eaf5"/></g></g><g id="Group_5653" data-name="Group 5653" transform="translate(47.733 32.853)"><g id="Group_5652" data-name="Group 5652" transform="translate(0 0)"><rect id="Rectangle_693" data-name="Rectangle 693" width="26.953" height="2.147" transform="matrix(1, 0.001, -0.001, 1, 0.002, 0)" fill="#d5eaf5"/></g></g><g id="Group_5655" data-name="Group 5655" transform="translate(46.625 17.679)"><g id="Group_5654" data-name="Group 5654" transform="translate(0 0)"><rect id="Rectangle_694" data-name="Rectangle 694" width="69.814" height="2.147" transform="translate(0.002 0) rotate(0.061)" fill="#d5eaf5"/></g></g><g id="Group_5657" data-name="Group 5657" transform="translate(28.081 132.158)"><g id="Group_5656" data-name="Group 5656"><rect id="Rectangle_695" data-name="Rectangle 695" width="3.521" height="21.451" fill="#5069ff"/></g></g><g id="Group_5659" data-name="Group 5659" transform="translate(36.862 123.246)"><g id="Group_5658" data-name="Group 5658" transform="translate(0 0)"><rect id="Rectangle_696" data-name="Rectangle 696" width="3.522" height="30.371" transform="translate(0.031 0) rotate(0.058)" fill="#719e97"/></g></g><g id="Group_5661" data-name="Group 5661" transform="translate(98.418 124.758)"><g id="Group_5660" data-name="Group 5660"><rect id="Rectangle_697" data-name="Rectangle 697" width="3.521" height="28.926" fill="#719e97"/></g></g><g id="Group_5663" data-name="Group 5663" transform="translate(115.985 112.201)"><g id="Group_5662" data-name="Group 5662" transform="translate(0 0)"><rect id="Rectangle_698" data-name="Rectangle 698" width="3.522" height="41.5" transform="translate(0.046 0) rotate(0.063)" fill="#719e97"/></g></g><g id="Group_5665" data-name="Group 5665" transform="translate(45.651 132.175)"><g id="Group_5664" data-name="Group 5664" transform="translate(0 0)"><rect id="Rectangle_699" data-name="Rectangle 699" width="3.522" height="21.451" transform="translate(0.024) rotate(0.065)" fill="#5069ff"/></g></g><g id="Group_5667" data-name="Group 5667" transform="translate(54.444 123.265)"><g id="Group_5666" data-name="Group 5666" transform="translate(0 0)"><rect id="Rectangle_700" data-name="Rectangle 700" width="3.521" height="30.371" transform="translate(0.033 0) rotate(0.062)" fill="#719e97"/></g></g><g id="Group_5669" data-name="Group 5669" transform="translate(63.235 132.194)"><g id="Group_5668" data-name="Group 5668" transform="translate(0 0)"><rect id="Rectangle_701" data-name="Rectangle 701" width="3.522" height="21.451" transform="translate(0.024 0) rotate(0.063)" fill="#719e97"/></g></g><g id="Group_5671" data-name="Group 5671" transform="translate(133.569 119.48)"><g id="Group_5670" data-name="Group 5670" transform="translate(0 0)"><rect id="Rectangle_702" data-name="Rectangle 702" width="3.522" height="34.239" transform="translate(0.038 0) rotate(0.063)" fill="#719e97"/></g></g><g id="Group_5673" data-name="Group 5673" transform="translate(80.82 132.213)"><g id="Group_5672" data-name="Group 5672" transform="translate(0 0)"><rect id="Rectangle_703" data-name="Rectangle 703" width="3.522" height="21.451" transform="translate(0.022 0) rotate(0.058)" fill="#719e97"/></g></g><g id="Group_5675" data-name="Group 5675" transform="translate(107.194 132.24)"><g id="Group_5674" data-name="Group 5674" transform="translate(0 0)"><rect id="Rectangle_704" data-name="Rectangle 704" width="3.522" height="21.451" transform="translate(0.024 0) rotate(0.065)" fill="#5069ff"/></g></g><g id="Group_5677" data-name="Group 5677" transform="translate(72.027 138.469)"><g id="Group_5676" data-name="Group 5676" transform="translate(0 0)"><rect id="Rectangle_705" data-name="Rectangle 705" width="3.522" height="15.185" transform="translate(0.017 0) rotate(0.063)" fill="#5069ff"/></g></g><g id="Group_5679" data-name="Group 5679" transform="translate(89.611 135.997)"><g id="Group_5678" data-name="Group 5678" transform="translate(0 0)"><rect id="Rectangle_706" data-name="Rectangle 706" width="3.522" height="17.676" transform="translate(0.018 0) rotate(0.058)" fill="#5069ff"/></g></g><g id="Group_5681" data-name="Group 5681" transform="translate(142.37 138.545)"><g id="Group_5680" data-name="Group 5680"><rect id="Rectangle_707" data-name="Rectangle 707" width="3.521" height="15.185" fill="#5069ff"/></g></g><g id="Group_5683" data-name="Group 5683" transform="translate(124.778 138.525)"><g id="Group_5682" data-name="Group 5682" transform="translate(0 0)"><rect id="Rectangle_708" data-name="Rectangle 708" width="3.522" height="15.185" transform="translate(0.017 0) rotate(0.063)" fill="#5069ff"/></g></g></g><g id="Group_5719" data-name="Group 5719" transform="translate(179.588 217.435)"><g id="Group_5685" data-name="Group 5685" transform="translate(118.16 25.812)"><path id="Path_6407" data-name="Path 6407" d="M280.106,208.57a2.987,2.987,0,0,0-3.217,1.561c-4.453,8.572-22.408,46.52-24.97,50.869-2.387,4.051-.862,13.1,8.306,9.869,3.506-1.234,16-11.075,19.993-14.844C294.313,242.737,308.131,213.785,280.106,208.57Z" transform="translate(-250.914 -208.518)" fill="#99b4dd"/></g><g id="Group_5686" data-name="Group 5686" transform="translate(82.501 43.309)"><path id="Path_6408" data-name="Path 6408" d="M223.872,224.05s1.3,7.328,11.509,19.686a105.036,105.036,0,0,0,27.673,23.058l6.805-11.642s-21.22-22.177-32.018-31.1C231.682,218.959,223.872,224.05,223.872,224.05Z" transform="translate(-223.872 -221.787)" fill="#99b4dd"/></g><g id="Group_5691" data-name="Group 5691" transform="translate(127.062 351.445)"><g id="Group_5688" data-name="Group 5688" transform="translate(0 2.793)"><g id="Group_5687" data-name="Group 5687"><path id="Path_6409" data-name="Path 6409" d="M275.936,461.831c.187-4.886-6.105-3.794-9.819-4.249,1.042.534,2.322,1.323.811,1.9-2.213.849-7.259.575-8.88-.934a10.524,10.524,0,0,0-.312,4.148C257.889,464.2,275.887,463.122,275.936,461.831Z" transform="translate(-257.665 -457.582)" fill="#30193b"/></g></g><g id="Group_5690" data-name="Group 5690" transform="translate(0.383)"><g id="Group_5689" data-name="Group 5689"><path id="Path_6410" data-name="Path 6410" d="M266.836,460.16c1.511-.58,1.892-1.705-.512-1.878a17.725,17.725,0,0,1-4.336-.906c-1.036-.355-1.548-1.912-1.548-1.912l-1.911.121s-.444,3.272-.574,3.641C259.577,460.735,264.623,461.009,266.836,460.16Z" transform="translate(-257.956 -455.464)" fill="#ff97a6"/></g></g></g><g id="Group_5696" data-name="Group 5696" transform="translate(16.295 350.982)"><g id="Group_5693" data-name="Group 5693" transform="translate(0 3.51)"><g id="Group_5692" data-name="Group 5692"><path id="Path_6411" data-name="Path 6411" d="M173.756,463.75c-.932-4.8,5.453-4.683,9.054-5.7-.948.687-2.094,1.661-.51,2,2.317.5,7.26-.541,8.632-2.28a10.518,10.518,0,0,1,.943,4.052C191.953,463.334,174,465.018,173.756,463.75Z" transform="translate(-173.664 -457.775)" fill="#30193b"/></g></g><g id="Group_5695" data-name="Group 5695" transform="translate(7.267)"><g id="Group_5694" data-name="Group 5694"><path id="Path_6412" data-name="Path 6412" d="M180.544,460.9c-1.584-.343-2.131-1.4.218-1.934a17.662,17.662,0,0,0,4.146-1.557c.97-.509,1.238-2.127,1.238-2.127l1.907-.171s.939,3.165,1.123,3.51C187.8,460.362,182.86,461.4,180.544,460.9Z" transform="translate(-179.175 -455.113)" fill="#ff97a6"/></g></g></g><g id="Group_5698" data-name="Group 5698" transform="translate(23.223 105.537)"><g id="Group_5697" data-name="Group 5697"><path id="Path_6413" data-name="Path 6413" d="M187.326,297.12c5.8-16.437,10.33-26.407,13.167-28.071,8.7-.462,49.007,1.477,52.481,1.263,3.007,1.331,7.256,10.961,13.2,28.065,14.509,41.767,24.582,216.313,24.582,216.313l-8.994,1.3s-20.569-71.638-33.753-127.913c-8.032-34.286-18.842-71.556-19.153-71.948-3.2,15.51-33.526,167.769-35.5,194.873-.335,4.58-9.038,8.008-9.419,4.312C181.111,487.915,172.6,338.812,187.326,297.12Z" transform="translate(-178.918 -268.978)" fill="#3b2b5b"/></g></g><g id="Group_5700" data-name="Group 5700" transform="translate(63.388 0.031)"><g id="Group_5699" data-name="Group 5699"><path id="Path_6414" data-name="Path 6414" d="M216.53,223.409s-4.549-6.91-5.638-11.243-2.838-8.031.119-8.389,11.393-1.258,12.97-9.406c.218-1.122-.456-3.159-1.167-4.729a.479.479,0,0,1,.644-.626c2.366,1.142,7.362,4.059,9.075,8.971,2.276,6.526.576,11.46-.233,14.458-.451,1.677-2.325,5.955-2.325,5.955Z" transform="translate(-209.378 -188.967)" fill="#80540a"/></g></g><g id="Group_5702" data-name="Group 5702" transform="translate(62.805 0)"><g id="Group_5701" data-name="Group 5701"><path id="Path_6415" data-name="Path 6415" d="M211.033,212.173c-.52-1.284-1.007-2.554-1.5-3.861a12.284,12.284,0,0,1-.543-2.072,2.824,2.824,0,0,1,.56-2.451,2.424,2.424,0,0,1,1.23-.657c.45-.116.708-.119,1.065-.187.667-.106,1.32-.232,1.966-.382a17.621,17.621,0,0,0,3.717-1.221,10.194,10.194,0,0,0,5.359-5.172,12.834,12.834,0,0,0,.663-1.829,4.162,4.162,0,0,0-.013-1.821,14.81,14.81,0,0,0-.448-1.969c-.091-.345-.212-.608-.3-1.017a.543.543,0,0,1,.808-.512.414.414,0,0,0-.554.475l.468.886a15.5,15.5,0,0,1,.841,1.934,5,5,0,0,1,.3,2.243,11.848,11.848,0,0,1-.522,2.1,10.65,10.65,0,0,1-5.888,6.232,17.99,17.99,0,0,1-4.106,1.249c-.7.12-1.4.214-2.093.281a3.475,3.475,0,0,0-1.564.318c-.294.187-.389.783-.377,1.4a12.507,12.507,0,0,0,.24,1.961C210.549,209.449,210.886,210.8,211.033,212.173Z" transform="translate(-208.935 -188.943)" fill="#ad7121"/></g></g><g id="Group_5703" data-name="Group 5703" transform="translate(0 41.383)"><path id="Path_6416" data-name="Path 6416" d="M221.332,220.7s-7.169-1.8-17.514,2.491c-14.388,5.971-35.967,19.553-40.964,32.489-5.71,14.782,4.95,50.247,22.735,52.769,6.616.938,9.282-9.307,9.282-9.307l-14.734-40.829,35-26.584Z" transform="translate(-161.307 -220.326)" fill="#aacbe8"/></g><g id="Group_5704" data-name="Group 5704" transform="translate(29.902 116.473)"><path id="Path_6417" data-name="Path 6417" d="M184.356,284.6s2.769-7.661,5.493-7.318,7.194.769,7.365,1.961-3.108.807-3.108.807a23.331,23.331,0,0,1,2.425,2.513c.256.51-1.448.723-1.448.723a1.414,1.414,0,0,1,.426,1.49c-.256.98-2.276-.566-3.522-.476s-4.286,3.614-6.782,3.92C184.283,288.333,183.491,286.674,184.356,284.6Z" transform="translate(-183.984 -277.272)" fill="#ff97a6"/></g><g id="Group_5705" data-name="Group 5705" transform="translate(152.25 15.621)"><path id="Path_6418" data-name="Path 6418" d="M278.835,215.245a1.209,1.209,0,0,0,1.357-.476c.767-1.131,4.917-3.459,6.377-5.575,0,0,2.218-3.273,1.49-5.277,0,0-.608-.422-1,.721,0,0,.558-3.128-.256-3.7s-1.523.715-1.523.715a.811.811,0,0,0-1.044-.559c-.469.149-1.315,2.106-2.788,3.674-1.051,1.12-2.614,2.1-2.773,2.967,0,0,.069-2.619-.673-2.5s-1.611,4.6-1.069,5.954a13.966,13.966,0,0,1-.058,2.512C276.768,214.268,277.916,214.963,278.835,215.245Z" transform="translate(-276.767 -200.79)" fill="#ff97a6"/></g><g id="Group_5707" data-name="Group 5707" transform="translate(70.598 106.143)"><g id="Group_5706" data-name="Group 5706"><path id="Path_6419" data-name="Path 6419" d="M217.245,269.441c11.6.4,22.544.832,24.28.725,3.007,1.331,7.256,10.961,13.2,28.065C269.232,340,279.305,514.543,279.305,514.543l-3.765.545s-6.211-82.95-19.657-139.164C238.96,305.172,205.647,269.041,217.245,269.441Z" transform="translate(-214.845 -269.438)" fill="#30193b"/></g></g><g id="Group_5709" data-name="Group 5709" transform="translate(33.042 41.331)"><g id="Group_5708" data-name="Group 5708"><path id="Path_6420" data-name="Path 6420" d="M186.365,229.5s18.192-10.434,25.336-9.088c9.633,1.817,17.385,3.005,27.491,2.052,6.1-.576,8.21.667,11.913,5.548,10.349,13.639.7,58.731.7,58.731s-18.458,4.73-29.477,4.739c-18.411.015-25.87-5.263-25.87-5.263s.166-17.1-.936-23.134C193.67,252.93,186.365,229.5,186.365,229.5Z" transform="translate(-186.365 -220.287)" fill="#aacbe8"/></g></g><g id="Group_5714" data-name="Group 5714" transform="translate(71.639 34.341)"><g id="Group_5711" data-name="Group 5711"><g id="Group_5710" data-name="Group 5710"><path id="Path_6421" data-name="Path 6421" d="M216.548,215.251s-1.545,8.893-.614,9.836,4.274,2.08,6.1-.215-.355-9.886-.355-9.886Z" transform="translate(-215.635 -214.986)" fill="#ff97a6"/></g></g><g id="Group_5713" data-name="Group 5713" transform="translate(0.082 1.75)"><g id="Group_5712" data-name="Group 5712"><path id="Path_6422" data-name="Path 6422" d="M215.7,221a10.61,10.61,0,0,0,7.045.111,25.434,25.434,0,0,0-.568-4.8l-5.938.306C216.048,217.9,215.808,219.523,215.7,221Z" transform="translate(-215.697 -216.313)" fill="#c95d77"/></g></g></g><g id="Group_5716" data-name="Group 5716" transform="translate(69.189 19.751)"><g id="Group_5715" data-name="Group 5715"><path id="Path_6423" data-name="Path 6423" d="M230.242,215.91c.421-1.011.152-4.739-.17-7.853a4.619,4.619,0,0,0-5.19-4.1c-3.989.514-8.373,1.317-9.509,2.192-1.783,1.371-1.629,4.073-1.559,6.086s.915,5.578,2.243,7.176c1.213,1.46,4.531,2.6,6.356,2.441C227.894,221.372,229.358,219.846,230.242,215.91Z" transform="translate(-213.777 -203.922)" fill="#ff97a6"/></g></g><g id="Group_5718" data-name="Group 5718" transform="translate(69.008 43.233)"><g id="Group_5717" data-name="Group 5717"><path id="Path_6424" data-name="Path 6424" d="M230.5,222s8.269-1.655,11.973,3.225c10.349,13.639.642,61.053.642,61.053s-8.935,4.181-15.154,4.739a82.142,82.142,0,0,1-14.323,0s11.505-13.165,16.861-30.446C235.769,243.575,230.5,222,230.5,222Z" transform="translate(-213.64 -221.729)" fill="#99b4dd"/></g></g></g><g id="Group_5724" data-name="Group 5724" transform="translate(570.433 373.332)"><g id="Group_5720" data-name="Group 5720" transform="translate(9.084)"><path id="Path_6425" data-name="Path 6425" d="M478.618,330.829a13.446,13.446,0,0,1,17.929-1.535l11.47-15.658a32.853,32.853,0,0,0-43.422,3.788Z" transform="translate(-464.596 -307.169)" fill="#ff5e4d"/></g><g id="Group_5721" data-name="Group 5721" transform="translate(0 12.342)"><path id="Path_6426" data-name="Path 6426" d="M477.2,338.64a13.772,13.772,0,0,1-.091-1.52,13.432,13.432,0,0,1,2.01-7.06l-14.154-13.531a32.764,32.764,0,0,0-7.258,20.591c0,.51.016,1.017.038,1.52Z" transform="translate(-457.707 -316.529)" fill="#3b2b5b"/></g><g id="Group_5722" data-name="Group 5722" transform="translate(0.146 37.084)"><path id="Path_6427" data-name="Path 6427" d="M486.533,344.019a13.585,13.585,0,0,1-8.783-8.62H457.926a33,33,0,0,0,25.5,27.85Z" transform="translate(-457.784 -335.258)" fill="#ffcb48"/><path id="Path_6428" data-name="Path 6428" d="M483.463,363.425l-.03,0a33.152,33.152,0,0,1-25.613-27.97.139.139,0,0,1,.034-.112.143.143,0,0,1,.107-.049h19.823a.142.142,0,0,1,.134.1,13.441,13.441,0,0,0,8.693,8.53.141.141,0,0,1,.1.158L483.6,363.305a.141.141,0,0,1-.059.1A.163.163,0,0,1,483.463,363.425Zm-25.34-27.85a32.864,32.864,0,0,0,25.224,27.536l3.062-18.958a13.73,13.73,0,0,1-8.727-8.578Z" transform="translate(-457.818 -335.292)" fill="#ffcb48"/></g><g id="Group_5723" data-name="Group 5723" transform="translate(28.52 8.216)"><path id="Path_6429" data-name="Path 6429" d="M505.476,313.4,493.9,329.2a13.506,13.506,0,0,1-10.152,22.441c-.444,0-.884-.024-1.317-.066l-3.095,19.165A32.908,32.908,0,0,0,505.476,313.4Z" transform="translate(-479.335 -313.4)" fill="#7f65c1"/></g></g></g><template xmlns="" id="transover-popup-template">
  <style>
    .pos_translation {
      padding-bottom: 3px;
    }

    strong {
      font-weight: bold;
    }

    .rtl {
      direction: rtl;
    }

    main {
      color: #333;
      font-family: Arial, sans-serif;
      font-size: 14px;
      font-weight: 300;
      letter-spacing: initial;

      background: #fcf7d9;
      text-align: left;
      border-style: solid;
      border-width: 1px;
      border-color: #ccc;
      box-shadow: rgba(0,0,0,0.2) 0px 2px 5px;
      border-radius: 5px;
      padding: 6px 8px 3px 8px;
      position: fixed;
      z-index: 2147483647;
      top: -1500px;
      left: 0;
      box-sizing: content-box;
      -webkit-font-smoothing: antialiased;
      font-smoothing: antialiased;
      text-rendering: optimizeLegibility;

      /* To fix the following issue:
      1. Have translate on hover enabled (opposed to translate on click).
      2. Wisit a website that has a dropdown menu that opens on hover.
      3. Open the menu.
      4. Hover over a word within that menu.
      5. Incidentally move the cursor over the TransOver popup.
      The hover menu gets closed.
      */
      pointer-events: none;
    }

    .pos_translation {
      font-size: 1em;
      line-height: 1.2em;
    }

    .red {
      color: red;
    }

    .from_lang {
      color: grey;
      font-size: 0.8em;
      line-height: 1.2em;
      margin-top: 2px;
      margin-bottom: 3px;
    }
  </style>

  <main translate="no"/>
</template></svg>