<svg xmlns="http://www.w3.org/2000/svg" xmlns:xlink="http://www.w3.org/1999/xlink" id="Capa_1" x="0px" y="0px" viewBox="0 0 450.06 450.06" style="enable-background:new 0 0 450.06 450.06;" xml:space="preserve">
<g>
	<path d="M138.1,49.839h53.847c4.142,0,7.5-3.358,7.5-7.5s-3.358-7.5-7.5-7.5H138.1c-4.142,0-7.5,3.358-7.5,7.5   S133.958,49.839,138.1,49.839z" fill="#fc7c04"/>
	<path d="M165.023,387.482c-10.54,0-19.114,8.574-19.114,19.114s8.574,19.114,19.114,19.114s19.114-8.574,19.114-19.114   S175.563,387.482,165.023,387.482z M165.023,410.71c-2.269,0-4.114-1.845-4.114-4.114s1.845-4.114,4.114-4.114   s4.114,1.845,4.114,4.114S167.292,410.71,165.023,410.71z" fill="#fc7c04"/>
	<path d="M403.444,105.717h-96.366V29.48c0-16.255-13.225-29.48-29.48-29.48H52.449c-16.255,0-29.48,13.225-29.48,29.48v391.11   c0,16.25,13.225,29.47,29.48,29.47h225.15c16.255,0,29.48-13.22,29.48-29.47V287.752h96.366c13.039,0,23.647-10.608,23.647-23.647   V129.364C427.091,116.325,416.483,105.717,403.444,105.717z M292.079,420.59c0,7.979-6.496,14.47-14.48,14.47H52.449   c-7.984,0-14.48-6.491-14.48-14.47V29.48c0-7.984,6.496-14.48,14.48-14.48h225.15c7.984,0,14.48,6.496,14.48,14.48v76.237h-11.39   V75.85c0-4.142-3.358-7.5-7.5-7.5H56.858c-4.142,0-7.5,3.358-7.5,7.5v298.36c0,4.142,3.358,7.5,7.5,7.5h216.33   c4.142,0,7.5-3.358,7.5-7.5v-78.827l10.943-7.631h0.447V420.59z M186.065,287.752h32.823v36.353c0,2.794,1.553,5.356,4.03,6.649   c1.091,0.569,2.282,0.851,3.469,0.851c1.507,0,3.008-0.454,4.291-1.348l35.011-24.414v60.867H64.358V83.35h201.33v22.367h-79.624   c-13.039,0-23.647,10.608-23.647,23.647v134.741C162.417,277.144,173.026,287.752,186.065,287.752z M412.091,264.105   c0,4.768-3.879,8.647-8.647,8.647h-114.17c-1.534,0-3.032,0.471-4.29,1.348l-51.097,35.631v-29.479c0-4.142-3.358-7.5-7.5-7.5   h-40.323c-4.768,0-8.647-3.879-8.647-8.647V129.364c0-4.768,3.879-8.647,8.647-8.647h217.379c4.768,0,8.647,3.879,8.647,8.647   V264.105z" fill="#fc7c04"/>
	<path d="M373.261,151.834H216.249c-4.142,0-7.5,3.358-7.5,7.5s3.358,7.5,7.5,7.5h157.012c4.142,0,7.5-3.358,7.5-7.5   S377.403,151.834,373.261,151.834z" fill="#fc7c04"/>
	<path d="M373.261,189.234H216.249c-4.142,0-7.5,3.358-7.5,7.5s3.358,7.5,7.5,7.5h157.012c4.142,0,7.5-3.358,7.5-7.5   S377.403,189.234,373.261,189.234z" fill="#fc7c04"/>
	<path d="M373.261,226.634H216.249c-4.142,0-7.5,3.358-7.5,7.5s3.358,7.5,7.5,7.5h157.012c4.142,0,7.5-3.358,7.5-7.5   S377.403,226.634,373.261,226.634z" fill="#fc7c04"/>
</g>
<g>
</g>
<g>
</g>
<g>
</g>
<g>
</g>
<g>
</g>
<g>
</g>
<g>
</g>
<g>
</g>
<g>
</g>
<g>
</g>
<g>
</g>
<g>
</g>
<g>
</g>
<g>
</g>
<g>
</g>
</svg>