<svg xmlns="http://www.w3.org/2000/svg" xmlns:xlink="http://www.w3.org/1999/xlink" id="Capa_1" x="0px" y="0px" viewBox="0 0 512.001 512.001" style="enable-background:new 0 0 512.001 512.001;" xml:space="preserve">
<g>
	<g>
		<g>
			<path d="M408.231,148.946C402.943,67.618,336.567,3.908,257.118,3.908c-78.786,0-145.156,63.649-151.107,145.011     c-2.37,35.561,8.857,72.338,31.741,103.716l105.969,141.664c3.157,4.222,8.121,6.71,13.397,6.71s10.234-2.487,13.397-6.71     l105.953-141.642C399.407,222.077,410.685,185.233,408.231,148.946z M349.685,232.59l-92.567,123.75l-92.45-123.588     c-18.143-24.88-27.123-53.866-25.277-81.502c4.094-55.98,49.254-113.884,117.727-113.884     c69.053,0,114.085,57.831,117.721,113.795C376.758,179.488,367.828,208.407,349.685,232.59z" fill="#fc7c04"/>
			<path d="M256.003,81.985c-34.139,0-61.909,27.77-61.909,61.909s27.77,61.909,61.909,61.909c34.133,0,61.909-27.77,61.909-61.909     C317.911,109.754,290.142,81.985,256.003,81.985z M256.003,172.338c-15.683,0-28.444-12.761-28.444-28.444     c0-15.951,12.493-28.444,28.444-28.444s28.444,12.493,28.444,28.444C284.447,159.577,271.686,172.338,256.003,172.338z" fill="#fc7c04"/>
		</g>
	</g>
</g>
<g>
	<g>
		<path d="M511.239,486.381L451.003,293.4c-2.175-6.983-8.645-11.746-15.968-11.746H322.931v33.464h99.801l49.789,159.512H40.054    l53.938-159.512h100.66v-33.464H81.99c-7.178,0-13.553,4.573-15.851,11.367L0.884,486.002c-1.729,5.109-0.892,10.736,2.253,15.115    s8.204,6.977,13.598,6.977h478.536c5.321,0,10.329-2.527,13.48-6.815C511.902,496.989,512.828,491.457,511.239,486.381z" fill="#fc7c04"/>
	</g>
</g>
<g>
	<g>
		<path d="M191.752,376.686c-3.157-3.341-7.557-5.237-12.159-5.237H54.661v33.464h107.23l-4.579,81.039l33.408,1.885l5.577-98.719    C196.559,384.528,194.914,380.033,191.752,376.686z" fill="#fc7c04"/>
	</g>
</g>
<g>
	<g>
		<path d="M452.883,349.697h-97.046c-9.242,0-16.732,7.49-16.732,16.732s7.49,16.732,16.732,16.732h97.046    c9.242,0,16.732-7.49,16.732-16.732S462.125,349.697,452.883,349.697z" fill="#fc7c04"/>
	</g>
</g>
<g>
	<g>
		<path d="M258.791,409.933c-9.242,0-16.732,7.49-16.732,16.732v64.697h33.464v-47.965h201.342v-33.464H258.791z" fill="#fc7c04"/>
	</g>
</g>
<g>
</g>
<g>
</g>
<g>
</g>
<g>
</g>
<g>
</g>
<g>
</g>
<g>
</g>
<g>
</g>
<g>
</g>
<g>
</g>
<g>
</g>
<g>
</g>
<g>
</g>
<g>
</g>
<g>
</g>
</svg>